  0
SECTION
  2
HEADER
  9
$ACADVER
  1
AC1006
  9
$EXTMIN
 10
0.000000
 20
0.000000
 30
0.000000
  9
$EXTMAX
 10
861.000000
 20
356.000000
 30
0.000000
  0
ENDSEC
  0
SECTION
  2
ENTITIES
  0
POLYLINE
  8
0
 66
1
 70
1
  0
VERTEX
  8
0
 10
432.725147
 20
354.434225
 42
0.029442
  0
VERTEX
  8
0
 10
426.425591
 20
352.509195
 42
0.033627
  0
VERTEX
  8
0
 10
420.679493
 20
349.924750
 42
0.032279
  0
VERTEX
  8
0
 10
415.140378
 20
346.494839
 42
0.023674
  0
VERTEX
  8
0
 10
409.457599
 20
342.026732
 42
-0.019812
  0
VERTEX
  8
0
 10
402.195642
 20
336.225727
 42
-0.083946
  0
VERTEX
  8
0
 10
397.244002
 20
333.729731
 42
-0.063259
  0
VERTEX
  8
0
 10
391.111506
 20
332.657767
 42
-0.008208
  0
VERTEX
  8
0
 10
377.799446
 20
332.254465
 42
0.003840
  0
VERTEX
  8
0
 10
368.061607
 20
332.044567
 42
0.017152
  0
VERTEX
  8
0
 10
362.361831
 20
331.681956
 42
0.028664
  0
VERTEX
  8
0
 10
358.318644
 20
331.049593
 42
0.036408
  0
VERTEX
  8
0
 10
354.694164
 20
329.986762
 42
0.032275
  0
VERTEX
  8
0
 10
349.049320
 20
327.448636
 42
0.034098
  0
VERTEX
  8
0
 10
343.885713
 20
324.245394
 42
0.030673
  0
VERTEX
  8
0
 10
338.767668
 20
320.066312
 42
0.018739
  0
VERTEX
  8
0
 10
333.241418
 20
314.560498
 42
-0.006639
  0
VERTEX
  8
0
 10
330.440405
 20
311.631437
 42
-0.006909
  0
VERTEX
  8
0
 10
327.599042
 20
308.816961
 42
-0.006684
  0
VERTEX
  8
0
 10
325.077114
 20
306.451198
 42
-0.029769
  0
VERTEX
  8
0
 10
323.500000
 20
305.174361
 42
-0.061992
  0
VERTEX
  8
0
 10
321.641172
 20
304.165571
 42
-0.010579
  0
VERTEX
  8
0
 10
317.856250
 20
302.774346
 42
-0.011398
  0
VERTEX
  8
0
 10
313.314212
 20
301.327964
 42
-0.009942
  0
VERTEX
  8
0
 10
308.500000
 20
300.018302
 42
0.063327
  0
VERTEX
  8
0
 10
283.947696
 20
290.432760
 42
0.120848
  0
VERTEX
  8
0
 10
268.388247
 20
276.247564
 42
0.096498
  0
VERTEX
  8
0
 10
259.075066
 20
254.135845
 42
0.030852
  0
VERTEX
  8
0
 10
253.912876
 20
218.673524
 42
0.000000
  0
VERTEX
  8
0
 10
252.688822
 20
203.936389
 42
0.000000
  0
VERTEX
  8
0
 10
212.094411
 20
204.218195
 42
0.000000
  0
VERTEX
  8
0
 10
171.500000
 20
204.500000
 42
0.000000
  0
VERTEX
  8
0
 10
165.840515
 20
207.279264
 42
-0.041325
  0
VERTEX
  8
0
 10
162.566055
 20
209.238021
 42
-0.015043
  0
VERTEX
  8
0
 10
158.263966
 20
212.520551
 42
-0.012473
  0
VERTEX
  8
0
 10
153.052073
 20
216.971425
 42
-0.006711
  0
VERTEX
  8
0
 10
146.840515
 20
222.702290
 42
0.017998
  0
VERTEX
  8
0
 10
131.467041
 20
236.256708
 42
0.064144
  0
VERTEX
  8
0
 10
120.361980
 20
243.195751
 42
0.076353
  0
VERTEX
  8
0
 10
108.909862
 20
246.463724
 42
0.032788
  0
VERTEX
  8
0
 10
93.000000
 20
247.419592
 42
0.018639
  0
VERTEX
  8
0
 10
81.707877
 20
246.935773
 42
0.025016
  0
VERTEX
  8
0
 10
71.552712
 20
245.606923
 42
0.019869
  0
VERTEX
  8
0
 10
59.952310
 20
243.014424
 42
0.007087
  0
VERTEX
  8
0
 10
43.611115
 20
238.425324
 42
0.012172
  0
VERTEX
  8
0
 10
31.879560
 20
234.637665
 42
0.056766
  0
VERTEX
  8
0
 10
25.491050
 20
231.551280
 42
0.111310
  0
VERTEX
  8
0
 10
22.191485
 20
228.253251
 42
0.141922
  0
VERTEX
  8
0
 10
21.000000
 20
224.140137
 42
0.143224
  0
VERTEX
  8
0
 10
22.178712
 20
220.109635
 42
0.122322
  0
VERTEX
  8
0
 10
25.402530
 20
217.055756
 42
0.043832
  0
VERTEX
  8
0
 10
32.382413
 20
213.877473
 42
0.004486
  0
VERTEX
  8
0
 10
49.562590
 20
207.979137
 42
-0.004518
  0
VERTEX
  8
0
 10
67.855525
 20
201.697494
 42
-0.069066
  0
VERTEX
  8
0
 10
73.777764
 20
198.631420
 42
-0.167525
  0
VERTEX
  8
0
 10
76.500600
 20
194.843054
 42
-0.056586
  0
VERTEX
  8
0
 10
77.721972
 20
188.060739
 42
-0.024225
  0
VERTEX
  8
0
 10
77.782879
 20
184.409633
 42
-0.024152
  0
VERTEX
  8
0
 10
77.490565
 20
180.766020
 42
-0.020493
  0
VERTEX
  8
0
 10
76.791472
 20
176.676948
 42
-0.010577
  0
VERTEX
  8
0
 10
75.600794
 20
171.624969
 42
-0.030234
  0
VERTEX
  8
0
 10
71.994795
 20
160.485373
 42
-0.071813
  0
VERTEX
  8
0
 10
67.700600
 20
152.931099
 42
-0.102793
  0
VERTEX
  8
0
 10
62.566942
 20
148.557211
 42
-0.125855
  0
VERTEX
  8
0
 10
56.478423
 20
147.000000
 42
-0.056092
  0
VERTEX
  8
0
 10
53.855700
 20
147.295155
 42
-0.005670
  0
VERTEX
  8
0
 10
47.739798
 20
148.762500
 42
-0.007047
  0
VERTEX
  8
0
 10
40.474346
 20
150.702318
 42
-0.005557
  0
VERTEX
  8
0
 10
32.664029
 20
153.000000
 42
0.006828
  0
VERTEX
  8
0
 10
18.012138
 20
157.269919
 42
0.040110
  0
VERTEX
  8
0
 10
10.150248
 20
158.779783
 42
0.088187
  0
VERTEX
  8
0
 10
5.315022
 20
158.458466
 42
0.167029
  0
VERTEX
  8
0
 10
2.072580
 20
156.365141
 42
0.080644
  0
VERTEX
  8
0
 10
0.559389
 20
153.631614
 42
0.101098
  0
VERTEX
  8
0
 10
0.147002
 20
150.770063
 42
0.072875
  0
VERTEX
  8
0
 10
0.866945
 20
147.287871
 42
0.024590
  0
VERTEX
  8
0
 10
2.883001
 20
142.500000
 42
0.049363
  0
VERTEX
  8
0
 10
11.240916
 20
128.755803
 42
0.023100
  0
VERTEX
  8
0
 10
24.530801
 20
112.692548
 42
0.023122
  0
VERTEX
  8
0
 10
39.370028
 20
97.800539
 42
0.045426
  0
VERTEX
  8
0
 10
52.671292
 20
87.685749
 42
0.037358
  0
VERTEX
  8
0
 10
58.217868
 20
84.765091
 42
0.036408
  0
VERTEX
  8
0
 10
64.184660
 20
82.673123
 42
0.035288
  0
VERTEX
  8
0
 10
70.569454
 20
81.419482
 42
0.030844
  0
VERTEX
  8
0
 10
77.363119
 20
81.000000
 42
0.051820
  0
VERTEX
  8
0
 10
88.797245
 20
82.188225
 42
0.049139
  0
VERTEX
  8
0
 10
99.958943
 20
85.705798
 42
0.045854
  0
VERTEX
  8
0
 10
110.889987
 20
91.608625
 42
0.035214
  0
VERTEX
  8
0
 10
121.637954
 20
99.901711
 42
-0.005350
  0
VERTEX
  8
0
 10
130.946427
 20
108.014590
 42
-0.012215
  0
VERTEX
  8
0
 10
138.179586
 20
113.884720
 42
-0.015895
  0
VERTEX
  8
0
 10
143.945527
 20
118.049426
 42
-0.038776
  0
VERTEX
  8
0
 10
148.500000
 20
120.634395
 42
0.000000
  0
VERTEX
  8
0
 10
153.500000
 20
122.980462
 42
0.000000
  0
VERTEX
  8
0
 10
202.119895
 20
122.990231
 42
0.000000
  0
VERTEX
  8
0
 10
250.739790
 20
123.000000
 42
0.000000
  0
VERTEX
  8
0
 10
251.942440
 20
116.750000
 42
0.030713
  0
VERTEX
  8
0
 10
253.601896
 20
110.291686
 42
0.038781
  0
VERTEX
  8
0
 10
255.948816
 20
104.589285
 42
0.040458
  0
VERTEX
  8
0
 10
259.051029
 20
99.516151
 42
0.038944
  0
VERTEX
  8
0
 10
262.965790
 20
94.938972
 42
0.079608
  0
VERTEX
  8
0
 10
273.036032
 20
87.650191
 42
0.071757
  0
VERTEX
  8
0
 10
285.242333
 20
83.545887
 42
0.072807
  0
VERTEX
  8
0
 10
297.939945
 20
83.091833
 42
0.086566
  0
VERTEX
  8
0
 10
309.443550
 20
86.428580
 42
0.000000
  0
VERTEX
  8
0
 10
314.963806
 20
89.129389
 42
0.000000
  0
VERTEX
  8
0
 10
318.233011
 20
86.635845
 42
0.078641
  0
VERTEX
  8
0
 10
328.399793
 20
81.152212
 42
0.048473
  0
VERTEX
  8
0
 10
341.627733
 20
77.903715
 42
0.047699
  0
VERTEX
  8
0
 10
355.554060
 20
77.226136
 42
0.065990
  0
VERTEX
  8
0
 10
367.848720
 20
79.444332
 42
-0.018291
  0
VERTEX
  8
0
 10
369.175279
 20
79.816772
 42
-0.224373
  0
VERTEX
  8
0
 10
369.677044
 20
79.712810
 42
-0.287810
  0
VERTEX
  8
0
 10
369.840162
 20
79.285404
 42
-0.027869
  0
VERTEX
  8
0
 10
369.551250
 20
78.161474
 42
0.069825
  0
VERTEX
  8
0
 10
368.900606
 20
74.322969
 42
0.017904
  0
VERTEX
  8
0
 10
368.946793
 20
68.012178
 42
0.018712
  0
VERTEX
  8
0
 10
369.463348
 20
61.612641
 42
0.052037
  0
VERTEX
  8
0
 10
370.454937
 20
57.218464
 42
0.082343
  0
VERTEX
  8
0
 10
375.446145
 20
47.866237
 42
0.066838
  0
VERTEX
  8
0
 10
383.514339
 20
39.840387
 42
0.048269
  0
VERTEX
  8
0
 10
395.785261
 20
32.269218
 42
0.018851
  0
VERTEX
  8
0
 10
414.000000
 20
24.164147
 42
-0.003940
  0
VERTEX
  8
0
 10
419.729394
 20
21.816763
 42
-0.002198
  0
VERTEX
  8
0
 10
426.670716
 20
18.872820
 42
-0.002192
  0
VERTEX
  8
0
 10
433.665731
 20
15.833373
 42
-0.003555
  0
VERTEX
  8
0
 10
439.581162
 20
13.181787
 42
0.014506
  0
VERTEX
  8
0
 10
458.056399
 20
5.381558
 42
0.040918
  0
VERTEX
  8
0
 10
471.481103
 20
1.394539
 42
0.056416
  0
VERTEX
  8
0
 10
482.652884
 20
0.339140
 42
0.058845
  0
VERTEX
  8
0
 10
493.613839
 20
1.839940
 42
0.023592
  0
VERTEX
  8
0
 10
497.926691
 20
3.177864
 42
0.005808
  0
VERTEX
  8
0
 10
504.872422
 20
5.789041
 42
0.005932
  0
VERTEX
  8
0
 10
512.766434
 20
8.970189
 42
0.005902
  0
VERTEX
  8
0
 10
520.596296
 20
12.343020
 42
-0.001543
  0
VERTEX
  8
0
 10
528.673804
 20
15.906339
 42
-0.001270
  0
VERTEX
  8
0
 10
537.314291
 20
19.660088
 42
-0.001282
  0
VERTEX
  8
0
 10
545.266116
 20
23.066513
 42
-0.003416
  0
VERTEX
  8
0
 10
550.962992
 20
25.443851
 42
0.015099
  0
VERTEX
  8
0
 10
567.744121
 20
32.911657
 42
0.022785
  0
VERTEX
  8
0
 10
581.825622
 20
40.503349
 42
0.026364
  0
VERTEX
  8
0
 10
592.790059
 20
47.888133
 42
0.064635
  0
VERTEX
  8
0
 10
599.725807
 20
54.674859
 42
0.030729
  0
VERTEX
  8
0
 10
602.877889
 20
59.226077
 42
0.027860
  0
VERTEX
  8
0
 10
605.563042
 20
64.277429
 42
0.027972
  0
VERTEX
  8
0
 10
607.659522
 20
69.573165
 42
0.031702
  0
VERTEX
  8
0
 10
609.051246
 20
74.854954
 42
0.045530
  0
VERTEX
  8
0
 10
609.822358
 20
82.296076
 42
0.011359
  0
VERTEX
  8
0
 10
609.694409
 20
94.534462
 42
0.012091
  0
VERTEX
  8
0
 10
608.973958
 20
107.082494
 42
0.029478
  0
VERTEX
  8
0
 10
607.677627
 20
116.250000
 42
0.000000
  0
VERTEX
  8
0
 10
606.313456
 20
123.000000
 42
0.000000
  0
VERTEX
  8
0
 10
644.406728
 20
123.134296
 42
-0.000559
  0
VERTEX
  8
0
 10
659.327550
 20
123.170206
 42
-0.000788
  0
VERTEX
  8
0
 10
672.631976
 20
123.166374
 42
-0.000455
  0
VERTEX
  8
0
 10
683.858776
 20
123.135238
 42
-0.010942
  0
VERTEX
  8
0
 10
687.000000
 20
123.054912
 42
-0.066954
  0
VERTEX
  8
0
 10
692.924545
 20
121.969742
 42
-0.058343
  0
VERTEX
  8
0
 10
698.656361
 20
119.331167
 42
-0.040329
  0
VERTEX
  8
0
 10
705.243342
 20
114.542752
 42
-0.013260
  0
VERTEX
  8
0
 10
714.133026
 20
106.495167
 42
0.014126
  0
VERTEX
  8
0
 10
726.826367
 20
95.044159
 42
0.043838
  0
VERTEX
  8
0
 10
736.215676
 20
88.367685
 42
0.057030
  0
VERTEX
  8
0
 10
745.172007
 20
84.404920
 42
0.039379
  0
VERTEX
  8
0
 10
755.993045
 20
81.940690
 42
0.043638
  0
VERTEX
  8
0
 10
768.570293
 20
81.210763
 42
0.029155
  0
VERTEX
  8
0
 10
782.946212
 20
82.472489
 42
0.022471
  0
VERTEX
  8
0
 10
800.544042
 20
85.870929
 42
0.010113
  0
VERTEX
  8
0
 10
823.310619
 20
91.828145
 42
0.013674
  0
VERTEX
  8
0
 10
833.627045
 20
95.058970
 42
0.064893
  0
VERTEX
  8
0
 10
839.159238
 20
97.802977
 42
0.123545
  0
VERTEX
  8
0
 10
841.979694
 20
100.923712
 42
0.122877
  0
VERTEX
  8
0
 10
843.000000
 20
105.012777
 42
0.078279
  0
VERTEX
  8
0
 10
842.586447
 20
107.638120
 42
0.083211
  0
VERTEX
  8
0
 10
841.387879
 20
109.948707
 42
0.071631
  0
VERTEX
  8
0
 10
839.328918
 20
111.998719
 42
0.041245
  0
VERTEX
  8
0
 10
836.354091
 20
113.854513
 42
0.041246
  0
VERTEX
  8
0
 10
834.774200
 20
114.509245
 42
0.001368
  0
VERTEX
  8
0
 10
828.287509
 20
116.570609
 42
0.002596
  0
VERTEX
  8
0
 10
820.607161
 20
118.944430
 42
0.001803
  0
VERTEX
  8
0
 10
811.906792
 20
121.549884
 42
-0.001549
  0
VERTEX
  8
0
 10
803.239078
 20
124.140761
 42
-0.002298
  0
VERTEX
  8
0
 10
795.662216
 20
126.469227
 42
-0.001011
  0
VERTEX
  8
0
 10
789.205786
 20
128.500230
 42
-0.046184
  0
VERTEX
  8
0
 10
787.922954
 20
129.041234
 42
-0.187066
  0
VERTEX
  8
0
 10
785.042154
 20
132.395947
 42
-0.053334
  0
VERTEX
  8
0
 10
783.427489
 20
139.196452
 42
-0.049493
  0
VERTEX
  8
0
 10
783.202848
 20
147.320311
 42
-0.054345
  0
VERTEX
  8
0
 10
784.611524
 20
155.068499
 42
-0.058284
  0
VERTEX
  8
0
 10
790.134980
 20
167.957619
 42
-0.105662
  0
VERTEX
  8
0
 10
797.767227
 20
176.454525
 42
-0.133177
  0
VERTEX
  8
0
 10
806.890300
 20
179.926204
 42
-0.124292
  0
VERTEX
  8
0
 10
816.782119
 20
178.446430
 42
0.026799
  0
VERTEX
  8
0
 10
822.924294
 20
176.258317
 42
0.002679
  0
VERTEX
  8
0
 10
837.897137
 20
171.899527
 42
0.001374
  0
VERTEX
  8
0
 10
853.692750
 20
167.439788
 42
0.068213
  0
VERTEX
  8
0
 10
856.901399
 20
167.000000
 42
0.144538
  0
VERTEX
  8
0
 10
858.430359
 20
167.451416
 42
0.094677
  0
VERTEX
  8
0
 10
859.767522
 20
168.729895
 42
0.082111
  0
VERTEX
  8
0
 10
860.684742
 20
170.603819
 42
0.072962
  0
VERTEX
  8
0
 10
861.000000
 20
172.752757
 42
0.141522
  0
VERTEX
  8
0
 10
857.210915
 20
185.871594
 42
0.029426
  0
VERTEX
  8
0
 10
843.108372
 20
205.576082
 42
0.031559
  0
VERTEX
  8
0
 10
825.259982
 20
225.001294
 42
0.050167
  0
VERTEX
  8
0
 10
807.500000
 20
238.908517
 42
0.093473
  0
VERTEX
  8
0
 10
792.410124
 20
244.894958
 42
0.084086
  0
VERTEX
  8
0
 10
775.581706
 20
245.290398
 42
0.076233
  0
VERTEX
  8
0
 10
758.159764
 20
239.968760
 42
0.058926
  0
VERTEX
  8
0
 10
741.383991
 20
229.302370
 42
-0.000152
  0
VERTEX
  8
0
 10
738.149875
 20
226.666917
 42
-0.000090
  0
VERTEX
  8
0
 10
734.290714
 20
223.525224
 42
-0.000090
  0
VERTEX
  8
0
 10
730.438839
 20
220.391766
 42
-0.000155
  0
VERTEX
  8
0
 10
727.229359
 20
217.783500
 42
-0.012375
  0
VERTEX
  8
0
 10
724.036320
 20
215.318825
 42
-0.008136
  0
VERTEX
  8
0
 10
720.247505
 20
212.634818
 42
-0.008187
  0
VERTEX
  8
0
 10
716.472315
 20
210.141438
 42
-0.015602
  0
VERTEX
  8
0
 10
713.345368
 20
208.283500
 42
0.000000
  0
VERTEX
  8
0
 10
706.500000
 20
204.500000
 42
0.000000
  0
VERTEX
  8
0
 10
646.903045
 20
204.220101
 42
0.000000
  0
VERTEX
  8
0
 10
587.306090
 20
203.940203
 42
0.000000
  0
VERTEX
  8
0
 10
586.665714
 20
225.220101
 42
0.007456
  0
VERTEX
  8
0
 10
585.959905
 20
240.895624
 42
0.020667
  0
VERTEX
  8
0
 10
584.844715
 20
251.873765
 42
0.028500
  0
VERTEX
  8
0
 10
583.118092
 20
260.411299
 42
0.035667
  0
VERTEX
  8
0
 10
580.516500
 20
268.060624
 42
-0.009604
  0
VERTEX
  8
0
 10
578.662308
 20
272.703845
 42
-0.020897
  0
VERTEX
  8
0
 10
577.459394
 20
276.346727
 42
-0.011463
  0
VERTEX
  8
0
 10
576.199913
 20
281.193763
 42
-0.001242
  0
VERTEX
  8
0
 10
573.578174
 20
292.451027
 42
0.043523
  0
VERTEX
  8
0
 10
568.071341
 20
309.447797
 42
0.062512
  0
VERTEX
  8
0
 10
560.145644
 20
323.125724
 42
0.069353
  0
VERTEX
  8
0
 10
549.830048
 20
333.377115
 42
0.072444
  0
VERTEX
  8
0
 10
537.248727
 20
340.236558
 42
0.028661
  0
VERTEX
  8
0
 10
533.572762
 20
341.362466
 42
0.036507
  0
VERTEX
  8
0
 10
530.077066
 20
341.951480
 42
0.023259
  0
VERTEX
  8
0
 10
525.478578
 20
342.169783
 42
0.005002
  0
VERTEX
  8
0
 10
517.500000
 20
342.097366
 42
-0.001326
  0
VERTEX
  8
0
 10
495.762897
 20
341.740250
 42
-0.034997
  0
VERTEX
  8
0
 10
489.950871
 20
342.067179
 42
-0.068756
  0
VERTEX
  8
0
 10
485.270323
 20
343.329625
 42
-0.010376
  0
VERTEX
  8
0
 10
476.389790
 20
347.311400
 42
0.025748
  0
VERTEX
  8
0
 10
463.891511
 20
352.460063
 42
0.044424
  0
VERTEX
  8
0
 10
453.002381
 20
355.246215
 42
0.050725
  0
VERTEX
  8
0
 10
442.875294
 20
355.858013
 42
0.049209
  0
SEQEND
  0
POLYLINE
  8
0
 66
1
 70
1
  0
VERTEX
  8
0
 10
459.296806
 20
344.510910
 42
-0.049743
  0
VERTEX
  8
0
 10
470.229459
 20
340.467950
 42
-0.067444
  0
VERTEX
  8
0
 10
478.977226
 20
334.632373
 42
-0.079508
  0
VERTEX
  8
0
 10
484.774983
 20
327.595203
 42
-0.118715
  0
VERTEX
  8
0
 10
487.075642
 20
320.000000
 42
0.187684
  0
VERTEX
  8
0
 10
487.221564
 20
319.680857
 42
0.382101
  0
VERTEX
  8
0
 10
487.476347
 20
319.670422
 42
0.090866
  0
VERTEX
  8
0
 10
487.867774
 20
320.134639
 42
0.021797
  0
VERTEX
  8
0
 10
488.331219
 20
321.034228
 42
-0.070334
  0
VERTEX
  8
0
 10
491.937436
 20
326.628793
 42
-0.078564
  0
VERTEX
  8
0
 10
496.836411
 20
330.763422
 42
-0.071530
  0
VERTEX
  8
0
 10
503.167246
 20
333.450249
 42
-0.046532
  0
VERTEX
  8
0
 10
511.016438
 20
334.761692
 42
-0.059254
  0
VERTEX
  8
0
 10
519.894980
 20
334.354623
 42
-0.041156
  0
VERTEX
  8
0
 10
529.643369
 20
331.902267
 42
-0.039990
  0
VERTEX
  8
0
 10
539.199627
 20
327.764104
 42
-0.045857
  0
VERTEX
  8
0
 10
547.517858
 20
322.311385
 42
-0.042039
  0
VERTEX
  8
0
 10
552.445284
 20
317.666209
 42
-0.041487
  0
VERTEX
  8
0
 10
556.550399
 20
312.242798
 42
-0.038964
  0
VERTEX
  8
0
 10
559.910547
 20
305.898965
 42
-0.029550
  0
VERTEX
  8
0
 10
562.612470
 20
298.500000
 42
-0.019845
  0
VERTEX
  8
0
 10
564.153568
 20
292.498696
 42
-0.028799
  0
VERTEX
  8
0
 10
564.992832
 20
287.095534
 42
-0.015895
  0
VERTEX
  8
0
 10
565.473032
 20
279.687241
 42
-0.002279
  0
VERTEX
  8
0
 10
565.904224
 20
264.500000
 42
0.000000
  0
VERTEX
  8
0
 10
566.500000
 20
239.500000
 42
0.000000
  0
VERTEX
  8
0
 10
568.184547
 20
246.500000
 42
0.011165
  0
VERTEX
  8
0
 10
568.880403
 20
249.704493
 42
0.006517
  0
VERTEX
  8
0
 10
569.578315
 20
253.573437
 42
0.006513
  0
VERTEX
  8
0
 10
570.176387
 20
257.467112
 42
0.010965
  0
VERTEX
  8
0
 10
570.563757
 20
260.750000
 42
-0.010647
  0
VERTEX
  8
0
 10
570.889928
 20
263.529407
 42
-0.017313
  0
VERTEX
  8
0
 10
571.298355
 20
265.870313
 42
-0.011408
  0
VERTEX
  8
0
 10
571.732747
 20
267.724111
 42
-0.341913
  0
VERTEX
  8
0
 10
572.089030
 20
268.000000
 42
-0.323354
  0
VERTEX
  8
0
 10
573.056257
 20
267.301448
 42
-0.006430
  0
VERTEX
  8
0
 10
574.996062
 20
261.181946
 42
-0.014759
  0
VERTEX
  8
0
 10
576.768404
 20
254.640584
 42
-0.020260
  0
VERTEX
  8
0
 10
577.946802
 20
248.660509
 42
-0.017751
  0
VERTEX
  8
0
 10
578.580910
 20
243.336674
 42
-0.012057
  0
VERTEX
  8
0
 10
578.940455
 20
237.243178
 42
-0.007960
  0
VERTEX
  8
0
 10
579.096330
 20
228.998405
 42
-0.002295
  0
VERTEX
  8
0
 10
579.075876
 20
216.250000
 42
0.000000
  0
VERTEX
  8
0
 10
579.000000
 20
204.000000
 42
0.000000
  0
VERTEX
  8
0
 10
573.525000
 20
204.000000
 42
0.000000
  0
VERTEX
  8
0
 10
568.050000
 20
204.000000
 42
0.000000
  0
VERTEX
  8
0
 10
568.634776
 20
207.250000
 42
-0.002155
  0
VERTEX
  8
0
 10
568.944778
 20
208.931288
 42
-0.000670
  0
VERTEX
  8
0
 10
569.424808
 20
211.454688
 42
-0.000670
  0
VERTEX
  8
0
 10
569.968783
 20
214.273083
 42
-0.000738
  0
VERTEX
  8
0
 10
570.503070
 20
217.000000
 42
0.006380
  0
VERTEX
  8
0
 10
570.967446
 20
219.520510
 42
0.009871
  0
VERTEX
  8
0
 10
571.297588
 20
221.709458
 42
0.004642
  0
VERTEX
  8
0
 10
571.521565
 20
223.556561
 42
0.220221
  0
VERTEX
  8
0
 10
571.405423
 20
223.904538
 42
0.533487
  0
VERTEX
  8
0
 10
570.805844
 20
223.804688
 42
0.006608
  0
VERTEX
  8
0
 10
568.954792
 20
219.573683
 42
0.014441
  0
VERTEX
  8
0
 10
567.167998
 20
214.971188
 42
0.020025
  0
VERTEX
  8
0
 10
565.854450
 20
210.745620
 42
-0.010012
  0
VERTEX
  8
0
 10
565.328751
 20
208.926806
 42
-0.015894
  0
VERTEX
  8
0
 10
564.798648
 20
207.395055
 42
-0.009888
  0
VERTEX
  8
0
 10
564.304710
 20
206.175200
 42
-0.301884
  0
VERTEX
  8
0
 10
564.042595
 20
206.003502
 42
-0.319944
  0
VERTEX
  8
0
 10
563.769101
 20
206.201140
 42
-0.002332
  0
VERTEX
  8
0
 10
562.832986
 20
209.015885
 42
-0.007508
  0
VERTEX
  8
0
 10
561.804378
 20
212.324823
 42
-0.004604
  0
VERTEX
  8
0
 10
560.686720
 20
216.253502
 42
0.009945
  0
VERTEX
  8
0
 10
558.785517
 20
222.675006
 42
0.010543
  0
VERTEX
  8
0
 10
556.664590
 20
228.890981
 42
0.058804
  0
VERTEX
  8
0
 10
555.787355
 20
230.629218
 42
0.836595
  0
VERTEX
  8
0
 10
555.487899
 20
230.500000
 42
-0.041680
  0
VERTEX
  8
0
 10
557.016719
 20
220.145174
 42
-0.009024
  0
VERTEX
  8
0
 10
557.835188
 20
202.059887
 42
-0.009725
  0
VERTEX
  8
0
 10
557.977515
 20
183.642892
 42
-0.028582
  0
VERTEX
  8
0
 10
557.105399
 20
171.000000
 42
-0.003916
  0
VERTEX
  8
0
 10
556.624297
 20
167.427214
 42
-0.781764
  0
VERTEX
  8
0
 10
556.402550
 20
167.404502
 42
-0.066261
  0
VERTEX
  8
0
 10
556.193819
 20
168.367301
 42
-0.000742
  0
VERTEX
  8
0
 10
555.664200
 20
175.000000
 42
0.010753
  0
VERTEX
  8
0
 10
554.771361
 20
183.925368
 42
0.007631
  0
VERTEX
  8
0
 10
553.402522
 20
193.893484
 42
0.005286
  0
VERTEX
  8
0
 10
551.902970
 20
203.051519
 42
0.062122
  0
VERTEX
  8
0
 10
550.847709
 20
206.500000
 42
0.049210
  0
VERTEX
  8
0
 10
550.469048
 20
207.162290
 42
0.654114
  0
VERTEX
  8
0
 10
550.267475
 20
207.120284
 42
0.075283
  0
VERTEX
  8
0
 10
550.226367
 20
206.393995
 42
0.006176
  0
VERTEX
  8
0
 10
550.428066
 20
204.500000
 42
-0.028100
  0
VERTEX
  8
0
 10
552.810730
 20
166.279130
 42
-0.043961
  0
VERTEX
  8
0
 10
550.120172
 20
133.457876
 42
-0.053834
  0
VERTEX
  8
0
 10
543.052829
 20
108.621040
 42
-0.166615
  0
VERTEX
  8
0
 10
531.779095
 20
95.636350
 42
-0.097559
  0
VERTEX
  8
0
 10
521.312154
 20
92.038141
 42
-0.035912
  0
VERTEX
  8
0
 10
505.653852
 20
91.021808
 42
-0.035603
  0
VERTEX
  8
0
 10
488.917052
 20
92.332509
 42
-0.052221
  0
VERTEX
  8
0
 10
474.635740
 20
96.035097
 42
-0.008343
  0
VERTEX
  8
0
 10
468.914552
 20
98.285187
 42
-0.267704
  0
VERTEX
  8
0
 10
468.032887
 20
99.430014
 42
-0.522940
  0
VERTEX
  8
0
 10
468.725466
 20
100.062723
 42
-0.010003
  0
VERTEX
  8
0
 10
474.281153
 20
98.683037
 42
0.046321
  0
VERTEX
  8
0
 10
482.286183
 20
97.301976
 42
0.012780
  0
VERTEX
  8
0
 10
495.052178
 20
96.628493
 42
0.009872
  0
VERTEX
  8
0
 10
507.763012
 20
96.534374
 42
0.098827
  0
VERTEX
  8
0
 10
512.935658
 20
97.633390
 42
0.503759
  0
VERTEX
  8
0
 10
513.057524
 20
98.151234
 42
0.179589
  0
VERTEX
  8
0
 10
512.268861
 20
98.595735
 42
0.024271
  0
VERTEX
  8
0
 10
509.138913
 20
98.939251
 42
0.003161
  0
VERTEX
  8
0
 10
502.435658
 20
99.304671
 42
-0.020345
  0
VERTEX
  8
0
 10
489.237125
 20
100.480083
 42
-0.033285
  0
VERTEX
  8
0
 10
478.227161
 20
102.666691
 42
-0.039368
  0
VERTEX
  8
0
 10
469.925205
 20
105.615462
 42
-0.135775
  0
VERTEX
  8
0
 10
465.560704
 20
109.216795
 42
-0.125538
  0
VERTEX
  8
0
 10
464.387903
 20
112.320894
 42
-0.033751
  0
VERTEX
  8
0
 10
464.154311
 20
117.626591
 42
-0.014649
  0
VERTEX
  8
0
 10
464.647585
 20
126.964805
 42
-0.001596
  0
VERTEX
  8
0
 10
466.481277
 20
148.419304
 42
0.004875
  0
VERTEX
  8
0
 10
467.503347
 20
161.378696
 42
0.002604
  0
VERTEX
  8
0
 10
468.526941
 20
177.414141
 42
0.002592
  0
VERTEX
  8
0
 10
469.401895
 20
193.797553
 42
0.004042
  0
VERTEX
  8
0
 10
469.968285
 20
207.919304
 42
-0.000776
  0
VERTEX
  8
0
 10
470.391397
 20
220.524384
 42
-0.000956
  0
VERTEX
  8
0
 10
470.826754
 20
232.279420
 42
-0.000788
  0
VERTEX
  8
0
 10
471.227043
 20
242.155968
 42
-0.007014
  0
VERTEX
  8
0
 10
471.471042
 20
246.500000
 42
0.005211
  0
VERTEX
  8
0
 10
471.666577
 20
249.770552
 42
0.037189
  0
VERTEX
  8
0
 10
471.626889
 20
251.354605
 42
0.470742
  0
VERTEX
  8
0
 10
471.357974
 20
251.535230
 42
0.224614
  0
VERTEX
  8
0
 10
471.000817
 20
251.215370
 42
0.060577
  0
VERTEX
  8
0
 10
468.188131
 20
241.342293
 42
0.007087
  0
VERTEX
  8
0
 10
464.931011
 20
218.616500
 42
0.008462
  0
VERTEX
  8
0
 10
461.900258
 20
191.487567
 42
0.007001
  0
VERTEX
  8
0
 10
459.566659
 20
162.500000
 42
-0.002862
  0
VERTEX
  8
0
 10
457.419455
 20
132.750915
 42
-0.022405
  0
VERTEX
  8
0
 10
455.723143
 20
118.981545
 42
-0.049729
  0
VERTEX
  8
0
 10
453.415856
 20
110.538222
 42
-0.071489
  0
VERTEX
  8
0
 10
449.645255
 20
103.779327
 42
-0.041354
  0
VERTEX
  8
0
 10
448.263676
 20
102.248702
 42
-0.019143
  0
VERTEX
  8
0
 10
446.239700
 20
100.489264
 42
-0.018812
  0
VERTEX
  8
0
 10
443.959208
 20
98.792438
 42
-0.024834
  0
VERTEX
  8
0
 10
441.754329
 20
97.433282
 42
-0.026815
  0
VERTEX
  8
0
 10
438.427922
 20
95.829975
 42
-0.049875
  0
VERTEX
  8
0
 10
435.566733
 20
94.957884
 42
-0.034292
  0
VERTEX
  8
0
 10
431.947197
 20
94.493398
 42
-0.007017
  0
VERTEX
  8
0
 10
425.500000
 20
94.202827
 42
-0.010397
  0
VERTEX
  8
0
 10
420.296203
 20
94.149688
 42
-0.013398
  0
VERTEX
  8
0
 10
415.518360
 20
94.328352
 42
-0.014770
  0
VERTEX
  8
0
 10
411.229869
 20
94.731398
 42
-0.021949
  0
VERTEX
  8
0
 10
407.511267
 20
95.358765
 42
0.005503
  0
VERTEX
  8
0
 10
404.806855
 20
95.907038
 42
0.008652
  0
VERTEX
  8
0
 10
402.471429
 20
96.312048
 42
0.003501
  0
VERTEX
  8
0
 10
400.483993
 20
96.607151
 42
0.235674
  0
VERTEX
  8
0
 10
400.168337
 20
96.501670
 42
0.441708
  0
VERTEX
  8
0
 10
400.178414
 20
96.285010
 42
0.019205
  0
VERTEX
  8
0
 10
400.852062
 20
95.768591
 42
0.022053
  0
VERTEX
  8
0
 10
401.799295
 20
95.159391
 42
0.012548
  0
VERTEX
  8
0
 10
402.993296
 20
94.503467
 42
0.049974
  0
VERTEX
  8
0
 10
406.866887
 20
92.968036
 42
0.016609
  0
VERTEX
  8
0
 10
412.798992
 20
91.489242
 42
0.017039
  0
VERTEX
  8
0
 10
419.016053
 20
90.377066
 42
0.033934
  0
VERTEX
  8
0
 10
424.000000
 20
90.002051
 42
-0.009704
  0
VERTEX
  8
0
 10
426.128246
 20
89.945281
 42
-0.069183
  0
VERTEX
  8
0
 10
427.139128
 20
89.756920
 42
-0.399021
  0
VERTEX
  8
0
 10
427.314303
 20
89.427794
 42
-0.183737
  0
VERTEX
  8
0
 10
427.000000
 20
89.000000
 42
-0.110100
  0
VERTEX
  8
0
 10
425.969132
 20
88.618534
 42
-0.010487
  0
VERTEX
  8
0
 10
423.285154
 20
88.310881
 42
-0.012984
  0
VERTEX
  8
0
 10
420.031738
 20
88.091963
 42
-0.009882
  0
VERTEX
  8
0
 10
416.460099
 20
88.015313
 42
-0.035412
  0
VERTEX
  8
0
 10
405.821652
 20
88.751610
 42
-0.050990
  0
VERTEX
  8
0
 10
396.665036
 20
91.009744
 42
-0.061548
  0
VERTEX
  8
0
 10
389.713622
 20
94.511318
 42
-0.130058
  0
VERTEX
  8
0
 10
385.751554
 20
99.005363
 42
-0.093008
  0
VERTEX
  8
0
 10
384.735218
 20
102.560884
 42
-0.015075
  0
VERTEX
  8
0
 10
384.282135
 20
109.767127
 42
-0.007459
  0
VERTEX
  8
0
 10
384.057182
 20
122.457260
 42
-0.000793
  0
VERTEX
  8
0
 10
384.021077
 20
152.000000
 42
-0.002656
  0
VERTEX
  8
0
 10
384.204311
 20
184.287577
 42
-0.010570
  0
VERTEX
  8
0
 10
384.840640
 20
204.087657
 42
-0.016331
  0
VERTEX
  8
0
 10
385.975121
 20
217.258318
 42
-0.057783
  0
VERTEX
  8
0
 10
387.939854
 20
225.500000
 42
0.000000
  0
VERTEX
  8
0
 10
389.033106
 20
228.500000
 42
0.000000
  0
VERTEX
  8
0
 10
387.013577
 20
226.000000
 42
0.024844
  0
VERTEX
  8
0
 10
386.195945
 20
224.878143
 42
0.018821
  0
VERTEX
  8
0
 10
385.409439
 20
223.573438
 42
0.019153
  0
VERTEX
  8
0
 10
384.762926
 20
222.289755
 42
0.041373
  0
VERTEX
  8
0
 10
384.388616
 20
221.250000
 42
-0.083078
  0
VERTEX
  8
0
 10
383.613738
 20
219.554292
 42
-0.678088
  0
VERTEX
  8
0
 10
383.039862
 20
219.679820
 42
-0.049768
  0
VERTEX
  8
0
 10
382.843447
 20
222.732160
 42
-0.007837
  0
VERTEX
  8
0
 10
383.149787
 20
228.749319
 42
0.003329
  0
VERTEX
  8
0
 10
383.768843
 20
239.074559
 42
0.016232
  0
VERTEX
  8
0
 10
383.890451
 20
244.930117
 42
0.032720
  0
VERTEX
  8
0
 10
383.647145
 20
248.079018
 42
0.617815
  0
VERTEX
  8
0
 10
382.920858
 20
248.320858
 42
0.084118
  0
VERTEX
  8
0
 10
382.446959
 20
247.653609
 42
0.019510
  0
VERTEX
  8
0
 10
381.895502
 20
246.387248
 42
0.019599
  0
VERTEX
  8
0
 10
381.367988
 20
244.859607
 42
0.018074
  0
VERTEX
  8
0
 10
380.945678
 20
243.253747
 42
0.030378
  0
VERTEX
  8
0
 10
379.287434
 20
232.996370
 42
0.013837
  0
VERTEX
  8
0
 10
378.311799
 20
219.444171
 42
0.008188
  0
VERTEX
  8
0
 10
377.751576
 20
199.311335
 42
0.001838
  0
VERTEX
  8
0
 10
377.485028
 20
165.000000
 42
-0.000842
  0
VERTEX
  8
0
 10
377.303043
 20
133.496630
 42
-0.005854
  0
VERTEX
  8
0
 10
377.007598
 20
118.085570
 42
-0.010955
  0
VERTEX
  8
0
 10
376.519331
 20
108.844376
 42
-0.049701
  0
VERTEX
  8
0
 10
375.586678
 20
103.538997
 42
-0.049916
  0
VERTEX
  8
0
 10
372.887253
 20
96.642430
 42
-0.092797
  0
VERTEX
  8
0
 10
369.227411
 20
91.906259
 42
-0.092671
  0
VERTEX
  8
0
 10
364.098468
 20
88.810738
 42
-0.049673
  0
VERTEX
  8
0
 10
356.924323
 20
86.910409
 42
-0.061417
  0
VERTEX
  8
0
 10
347.911947
 20
86.576851
 42
-0.048895
  0
VERTEX
  8
0
 10
338.335619
 20
88.353088
 42
-0.049782
  0
VERTEX
  8
0
 10
329.490892
 20
91.891853
 42
-0.071984
  0
VERTEX
  8
0
 10
322.667579
 20
96.802262
 42
-0.078172
  0
VERTEX
  8
0
 10
318.370735
 20
102.486812
 42
-0.096881
  0
VERTEX
  8
0
 10
316.426361
 20
108.815716
 42
-0.026173
  0
VERTEX
  8
0
 10
315.830321
 20
120.141735
 42
-0.001070
  0
VERTEX
  8
0
 10
315.907757
 20
161.000000
 42
-0.001365
  0
VERTEX
  8
0
 10
316.085590
 20
187.288711
 42
-0.003777
  0
VERTEX
  8
0
 10
316.401015
 20
205.789627
 42
-0.004990
  0
VERTEX
  8
0
 10
316.861124
 20
219.090069
 42
-0.018234
  0
VERTEX
  8
0
 10
317.544020
 20
227.500000
 42
0.000814
  0
VERTEX
  8
0
 10
318.667030
 20
237.149339
 42
0.019932
  0
VERTEX
  8
0
 10
318.867321
 20
239.837347
 42
0.379940
  0
VERTEX
  8
0
 10
318.529705
 20
240.245022
 42
0.292605
  0
VERTEX
  8
0
 10
317.975656
 20
240.000000
 42
0.063428
  0
VERTEX
  8
0
 10
316.921752
 20
237.864303
 42
0.010176
  0
VERTEX
  8
0
 10
315.494410
 20
233.429388
 42
0.010523
  0
VERTEX
  8
0
 10
313.955542
 20
227.868574
 42
0.007147
  0
VERTEX
  8
0
 10
312.428378
 20
221.479868
 42
0.037037
  0
VERTEX
  8
0
 10
311.383042
 20
214.385923
 42
0.007343
  0
VERTEX
  8
0
 10
310.643901
 20
201.562574
 42
0.003584
  0
VERTEX
  8
0
 10
309.848374
 20
179.302023
 42
0.000399
  0
VERTEX
  8
0
 10
308.437965
 20
128.500000
 42
-0.004008
  0
VERTEX
  8
0
 10
307.789961
 20
109.979634
 42
-0.034437
  0
VERTEX
  8
0
 10
306.866023
 20
101.752704
 42
-0.090399
  0
VERTEX
  8
0
 10
305.201299
 20
97.343266
 42
-0.165523
  0
VERTEX
  8
0
 10
302.298369
 20
94.891078
 42
-0.093216
  0
VERTEX
  8
0
 10
298.179486
 20
94.109778
 42
-0.021286
  0
VERTEX
  8
0
 10
291.060641
 20
94.401822
 42
-0.022993
  0
VERTEX
  8
0
 10
283.629486
 20
95.369914
 42
-0.045657
  0
VERTEX
  8
0
 10
277.905101
 20
96.934317
 42
-0.111260
  0
VERTEX
  8
0
 10
269.528595
 20
102.417930
 42
-0.096031
  0
VERTEX
  8
0
 10
263.772246
 20
111.240867
 42
-0.063323
  0
VERTEX
  8
0
 10
260.180039
 20
124.737308
 42
-0.021496
  0
VERTEX
  8
0
 10
258.337854
 20
145.000000
 42
-0.017586
  0
VERTEX
  8
0
 10
258.204537
 20
155.654028
 42
-0.030555
  0
VERTEX
  8
0
 10
258.944145
 20
164.464897
 42
-0.028763
  0
VERTEX
  8
0
 10
260.792478
 20
173.474320
 42
-0.013670
  0
VERTEX
  8
0
 10
264.148265
 20
184.835915
 42
0.006879
  0
VERTEX
  8
0
 10
265.812289
 20
190.200474
 42
0.005781
  0
VERTEX
  8
0
 10
267.431276
 20
195.928477
 42
0.005837
  0
VERTEX
  8
0
 10
268.788324
 20
201.194248
 42
0.015999
  0
VERTEX
  8
0
 10
269.583410
 20
204.951220
 42
0.023310
  0
VERTEX
  8
0
 10
270.407591
 20
211.257981
 42
0.010846
  0
VERTEX
  8
0
 10
270.916038
 20
219.495709
 42
0.005002
  0
VERTEX
  8
0
 10
271.157338
 20
227.550519
 42
0.675415
  0
VERTEX
  8
0
 10
270.498019
 20
227.831353
 42
0.142838
  0
VERTEX
  8
0
 10
270.255621
 20
227.389372
 42
0.002533
  0
VERTEX
  8
0
 10
269.676910
 20
224.711265
 42
0.006130
  0
VERTEX
  8
0
 10
269.052726
 20
221.559137
 42
0.004023
  0
VERTEX
  8
0
 10
268.407661
 20
217.914686
 42
-0.017127
  0
VERTEX
  8
0
 10
266.898074
 20
210.520405
 42
-0.012348
  0
VERTEX
  8
0
 10
264.730597
 20
202.383552
 42
-0.008095
  0
VERTEX
  8
0
 10
262.426171
 20
194.965953
 42
-0.115052
  0
VERTEX
  8
0
 10
260.993477
 20
192.610732
 42
-0.523298
  0
VERTEX
  8
0
 10
260.687813
 20
192.662896
 42
-0.080090
  0
VERTEX
  8
0
 10
260.484908
 20
193.374668
 42
-0.035562
  0
VERTEX
  8
0
 10
260.420969
 20
194.740669
 42
-0.014244
  0
VERTEX
  8
0
 10
260.519815
 20
196.610732
 42
0.006285
  0
VERTEX
  8
0
 10
260.706879
 20
199.328371
 42
0.001360
  0
VERTEX
  8
0
 10
260.958318
 20
204.029403
 42
0.001419
  0
VERTEX
  8
0
 10
261.219134
 20
209.472969
 42
0.001357
  0
VERTEX
  8
0
 10
261.453207
 20
215.000000
 42
-0.023092
  0
VERTEX
  8
0
 10
263.275972
 20
236.195292
 42
-0.041377
  0
VERTEX
  8
0
 10
266.995767
 20
253.256219
 42
-0.050541
  0
VERTEX
  8
0
 10
272.714882
 20
266.844787
 42
-0.069623
  0
VERTEX
  8
0
 10
280.597319
 20
277.467401
 42
-0.053204
  0
VERTEX
  8
0
 10
287.404462
 20
283.052227
 42
-0.046874
  0
VERTEX
  8
0
 10
295.524052
 20
287.352823
 42
-0.046688
  0
VERTEX
  8
0
 10
304.337508
 20
290.080134
 42
-0.051745
  0
VERTEX
  8
0
 10
313.202231
 20
291.000000
 42
-0.062282
  0
VERTEX
  8
0
 10
317.427521
 20
290.471636
 42
-0.118626
  0
VERTEX
  8
0
 10
320.439612
 20
288.884496
 42
-0.109874
  0
VERTEX
  8
0
 10
322.544261
 20
286.002906
 42
-0.048696
  0
VERTEX
  8
0
 10
324.009733
 20
281.500000
 42
0.058359
  0
VERTEX
  8
0
 10
324.465425
 20
280.186387
 42
0.583977
  0
VERTEX
  8
0
 10
324.925237
 20
280.157293
 42
0.067846
  0
VERTEX
  8
0
 10
325.525049
 20
281.426778
 42
0.003131
  0
VERTEX
  8
0
 10
326.937952
 20
286.000000
 42
-0.035830
  0
VERTEX
  8
0
 10
332.632804
 20
300.902564
 42
-0.065534
  0
VERTEX
  8
0
 10
339.615048
 20
311.855421
 42
-0.081007
  0
VERTEX
  8
0
 10
347.993705
 20
319.067745
 42
-0.093362
  0
VERTEX
  8
0
 10
357.839034
 20
322.805994
 42
-0.043651
  0
VERTEX
  8
0
 10
362.880050
 20
323.258126
 42
-0.020973
  0
VERTEX
  8
0
 10
369.372347
 20
323.000015
 42
-0.016419
  0
VERTEX
  8
0
 10
377.578443
 20
322.056198
 42
-0.007832
  0
VERTEX
  8
0
 10
388.061511
 20
320.332057
 42
0.000000
  0
VERTEX
  8
0
 10
397.623023
 20
318.605259
 42
0.000000
  0
VERTEX
  8
0
 10
396.871122
 20
314.052630
 42
0.016389
  0
VERTEX
  8
0
 10
396.294430
 20
309.672385
 42
0.022908
  0
VERTEX
  8
0
 10
396.087900
 20
305.728724
 42
0.017802
  0
VERTEX
  8
0
 10
396.179669
 20
302.574507
 42
0.395392
  0
VERTEX
  8
0
 10
396.792595
 20
302.000000
 42
0.278808
  0
VERTEX
  8
0
 10
397.164201
 20
302.224678
 42
0.018623
  0
VERTEX
  8
0
 10
397.723838
 20
303.395312
 42
0.022532
  0
VERTEX
  8
0
 10
398.307765
 20
304.929645
 42
0.014601
  0
VERTEX
  8
0
 10
398.849779
 20
306.750000
 42
-0.047507
  0
VERTEX
  8
0
 10
402.467648
 20
316.505314
 42
-0.039438
  0
VERTEX
  8
0
 10
408.056499
 20
326.067706
 42
-0.040753
  0
VERTEX
  8
0
 10
414.778246
 20
334.225054
 42
-0.067611
  0
VERTEX
  8
0
 10
421.781396
 20
339.717777
 42
-0.058387
  0
VERTEX
  8
0
 10
430.043293
 20
343.342581
 42
-0.042458
  0
VERTEX
  8
0
 10
439.864386
 20
345.455812
 42
-0.042057
  0
VERTEX
  8
0
 10
450.022297
 20
345.892982
 42
-0.053489
  0
SEQEND
  0
POLYLINE
  8
0
 66
1
 70
1
  0
VERTEX
  8
0
 10
110.498285
 20
237.000590
 42
-0.069181
  0
VERTEX
  8
0
 10
119.871960
 20
232.244890
 42
-0.073952
  0
VERTEX
  8
0
 10
127.353691
 20
225.200718
 42
-0.066287
  0
VERTEX
  8
0
 10
133.051128
 20
215.598145
 42
-0.042123
  0
VERTEX
  8
0
 10
137.133762
 20
203.233700
 42
-0.043759
  0
VERTEX
  8
0
 10
138.718428
 20
192.550732
 42
-0.022958
  0
VERTEX
  8
0
 10
138.905178
 20
179.108203
 42
-0.022691
  0
VERTEX
  8
0
 10
137.830608
 20
165.250789
 42
-0.032862
  0
VERTEX
  8
0
 10
135.531176
 20
153.194651
 42
-0.030326
  0
VERTEX
  8
0
 10
129.532508
 20
134.772635
 42
-0.041762
  0
VERTEX
  8
0
 10
121.825274
 20
119.173748
 42
-0.047143
  0
VERTEX
  8
0
 10
112.588045
 20
106.678739
 42
-0.064519
  0
VERTEX
  8
0
 10
102.000000
 20
97.557376
 42
-0.022292
  0
VERTEX
  8
0
 10
95.290039
 20
93.556327
 42
-0.045451
  0
VERTEX
  8
0
 10
89.649958
 20
91.156658
 42
-0.048656
  0
VERTEX
  8
0
 10
83.924519
 20
89.911215
 42
-0.029537
  0
VERTEX
  8
0
 10
77.000000
 20
89.509846
 42
-0.012982
  0
VERTEX
  8
0
 10
71.902503
 20
89.648127
 42
-0.043345
  0
VERTEX
  8
0
 10
68.591549
 20
90.113759
 42
-0.042459
  0
VERTEX
  8
0
 10
65.375315
 20
91.148334
 42
-0.012088
  0
VERTEX
  8
0
 10
60.579724
 20
93.291420
 42
-0.038691
  0
VERTEX
  8
0
 10
49.872601
 20
99.447249
 42
-0.030071
  0
VERTEX
  8
0
 10
39.248763
 20
107.679670
 42
-0.028065
  0
VERTEX
  8
0
 10
28.956501
 20
117.769902
 42
-0.023803
  0
VERTEX
  8
0
 10
19.243691
 20
129.500000
 42
-0.020473
  0
VERTEX
  8
0
 10
14.815932
 20
135.929742
 42
-0.016579
  0
VERTEX
  8
0
 10
10.588423
 20
143.162102
 42
-0.008181
  0
VERTEX
  8
0
 10
7.022749
 20
150.020347
 42
-0.322668
  0
VERTEX
  8
0
 10
7.282046
 20
151.615379
 42
-0.264778
  0
VERTEX
  8
0
 10
7.964580
 20
151.802603
 42
-0.001387
  0
VERTEX
  8
0
 10
14.935758
 20
150.002307
 42
-0.005524
  0
VERTEX
  8
0
 10
22.936691
 20
147.817684
 42
-0.003414
  0
VERTEX
  8
0
 10
32.294947
 20
145.081780
 42
0.001880
  0
VERTEX
  8
0
 10
47.080557
 20
140.709879
 42
0.017548
  0
VERTEX
  8
0
 10
53.522796
 20
139.074222
 42
0.042553
  0
VERTEX
  8
0
 10
57.470734
 20
138.564127
 42
0.076768
  0
VERTEX
  8
0
 10
60.705698
 20
138.920753
 42
0.107964
  0
VERTEX
  8
0
 10
67.092394
 20
142.230548
 42
0.052465
  0
VERTEX
  8
0
 10
73.540184
 20
148.843670
 42
0.047550
  0
VERTEX
  8
0
 10
79.199839
 20
157.617846
 42
0.044451
  0
VERTEX
  8
0
 10
83.250459
 20
167.500000
 42
0.047098
  0
VERTEX
  8
0
 10
84.993451
 20
175.839687
 42
0.027649
  0
VERTEX
  8
0
 10
85.570800
 20
186.025279
 42
0.027273
  0
VERTEX
  8
0
 10
85.054824
 20
195.716031
 42
0.079380
  0
VERTEX
  8
0
 10
83.296837
 20
202.164476
 42
0.023615
  0
VERTEX
  8
0
 10
82.346904
 20
204.026232
 42
0.024606
  0
VERTEX
  8
0
 10
81.237491
 20
205.763853
 42
0.025253
  0
VERTEX
  8
0
 10
80.134398
 20
207.162158
 42
0.090491
  0
VERTEX
  8
0
 10
79.247470
 20
207.867558
 42
0.044571
  0
VERTEX
  8
0
 10
77.786890
 20
208.489069
 42
0.001164
  0
VERTEX
  8
0
 10
71.041057
 20
210.656661
 42
0.002448
  0
VERTEX
  8
0
 10
63.093447
 20
213.147223
 42
0.001670
  0
VERTEX
  8
0
 10
54.035916
 20
215.903907
 42
-0.001459
  0
VERTEX
  8
0
 10
45.074269
 20
218.627280
 42
-0.002329
  0
VERTEX
  8
0
 10
37.434627
 20
221.012279
 42
-0.000460
  0
VERTEX
  8
0
 10
30.721553
 20
223.149193
 42
-0.119641
  0
VERTEX
  8
0
 10
30.199175
 20
223.467492
 42
-0.384934
  0
VERTEX
  8
0
 10
30.156134
 20
224.319139
 42
-0.091845
  0
VERTEX
  8
0
 10
31.336599
 20
225.319932
 42
-0.036620
  0
VERTEX
  8
0
 10
33.993370
 20
226.592922
 42
-0.007808
  0
VERTEX
  8
0
 10
38.793935
 20
228.388941
 42
-0.017806
  0
VERTEX
  8
0
 10
52.796406
 20
232.824667
 42
-0.019596
  0
VERTEX
  8
0
 10
66.641307
 20
236.095359
 42
-0.020563
  0
VERTEX
  8
0
 10
80.012986
 20
238.139225
 42
-0.025408
  0
VERTEX
  8
0
 10
92.593450
 20
238.891811
 42
-0.007239
  0
VERTEX
  8
0
 10
99.021200
 20
238.856247
 42
-0.021309
  0
VERTEX
  8
0
 10
103.433698
 20
238.579558
 42
-0.028870
  0
VERTEX
  8
0
 10
106.985691
 20
237.995548
 42
-0.027677
  0
SEQEND
  0
POLYLINE
  8
0
 66
1
 70
1
  0
VERTEX
  8
0
 10
791.306702
 20
236.508332
 42
-0.043157
  0
VERTEX
  8
0
 10
799.899261
 20
233.458514
 42
-0.036530
  0
VERTEX
  8
0
 10
808.359448
 20
228.832797
 42
-0.032327
  0
VERTEX
  8
0
 10
816.974063
 20
222.445410
 42
-0.021308
  0
VERTEX
  8
0
 10
826.041248
 20
214.078500
 42
-0.016302
  0
VERTEX
  8
0
 10
832.411428
 20
207.245152
 42
-0.014799
  0
VERTEX
  8
0
 10
838.539138
 20
199.792397
 42
-0.015199
  0
VERTEX
  8
0
 10
844.017147
 20
192.249810
 42
-0.021098
  0
VERTEX
  8
0
 10
848.422138
 20
185.153934
 42
-0.011486
  0
VERTEX
  8
0
 10
850.811523
 20
180.678603
 42
-0.058166
  0
VERTEX
  8
0
 10
851.783344
 20
178.026395
 42
-0.177862
  0
VERTEX
  8
0
 10
851.617603
 20
176.616482
 42
-0.282618
  0
VERTEX
  8
0
 10
850.614053
 20
176.000000
 42
-0.068504
  0
VERTEX
  8
0
 10
849.588236
 20
176.141207
 42
-0.000889
  0
VERTEX
  8
0
 10
843.330196
 20
177.909375
 42
-0.002555
  0
VERTEX
  8
0
 10
836.090553
 20
180.008857
 42
-0.001672
  0
VERTEX
  8
0
 10
827.764167
 20
182.500000
 42
0.004771
  0
VERTEX
  8
0
 10
819.251715
 20
184.989441
 42
0.006261
  0
VERTEX
  8
0
 10
811.430367
 20
187.090625
 42
0.004686
  0
VERTEX
  8
0
 10
804.856650
 20
188.703213
 42
0.057861
  0
VERTEX
  8
0
 10
802.300594
 20
189.000000
 42
0.118080
  0
VERTEX
  8
0
 10
796.570962
 20
187.627762
 42
0.070538
  0
VERTEX
  8
0
 10
790.802363
 20
183.587516
 42
0.057070
  0
VERTEX
  8
0
 10
785.298878
 20
177.118817
 42
0.035999
  0
VERTEX
  8
0
 10
780.375882
 20
168.500000
 42
0.030642
  0
VERTEX
  8
0
 10
777.629792
 20
161.737569
 42
0.037882
  0
VERTEX
  8
0
 10
775.956240
 20
155.148954
 42
0.034336
  0
VERTEX
  8
0
 10
775.194790
 20
147.880051
 42
0.019301
  0
VERTEX
  8
0
 10
775.220270
 20
139.000000
 42
0.016133
  0
VERTEX
  8
0
 10
775.728107
 20
132.124708
 42
0.041904
  0
VERTEX
  8
0
 10
776.663903
 20
127.252375
 42
0.059547
  0
VERTEX
  8
0
 10
778.111510
 20
123.755223
 42
0.091921
  0
VERTEX
  8
0
 10
780.200247
 20
121.248773
 42
0.093312
  0
VERTEX
  8
0
 10
781.311016
 20
120.632348
 42
0.001453
  0
VERTEX
  8
0
 10
788.259740
 20
118.347748
 42
0.003810
  0
VERTEX
  8
0
 10
796.382386
 20
115.771599
 42
0.002507
  0
VERTEX
  8
0
 10
805.766183
 20
112.925435
 42
-0.002374
  0
VERTEX
  8
0
 10
815.057933
 20
110.109894
 42
-0.003913
  0
VERTEX
  8
0
 10
822.881316
 20
107.631475
 42
-0.000643
  0
VERTEX
  8
0
 10
829.747915
 20
105.387116
 42
-0.324082
  0
VERTEX
  8
0
 10
830.000000
 20
105.039042
 42
-0.323577
  0
VERTEX
  8
0
 10
828.552385
 20
103.036358
 42
-0.005622
  0
VERTEX
  8
0
 10
815.020668
 20
98.734965
 42
-0.013699
  0
VERTEX
  8
0
 10
800.560829
 20
94.746549
 42
-0.017965
  0
VERTEX
  8
0
 10
787.150627
 20
91.946897
 42
-0.028303
  0
VERTEX
  8
0
 10
770.026855
 20
89.998463
 42
-0.056811
  0
VERTEX
  8
0
 10
756.459344
 20
90.769822
 42
-0.071402
  0
VERTEX
  8
0
 10
745.573453
 20
94.291151
 42
-0.080893
  0
VERTEX
  8
0
 10
736.628587
 20
100.634529
 42
-0.102897
  0
VERTEX
  8
0
 10
727.768186
 20
113.941382
 42
-0.062804
  0
VERTEX
  8
0
 10
722.954188
 20
132.264408
 42
-0.054530
  0
VERTEX
  8
0
 10
722.465082
 20
153.971880
 42
-0.041969
  0
VERTEX
  8
0
 10
726.484438
 20
177.343130
 42
-0.046386
  0
VERTEX
  8
0
 10
734.301136
 20
198.964438
 42
-0.060394
  0
VERTEX
  8
0
 10
745.477910
 20
216.781586
 42
-0.068525
  0
VERTEX
  8
0
 10
759.186351
 20
229.631005
 42
-0.094559
  0
VERTEX
  8
0
 10
774.500000
 20
236.611029
 42
-0.020406
  0
VERTEX
  8
0
 10
779.186400
 20
237.552746
 42
-0.040925
  0
VERTEX
  8
0
 10
782.948311
 20
237.838047
 42
-0.041211
  0
VERTEX
  8
0
 10
786.689562
 20
237.506129
 42
-0.020989
  0
SEQEND
  0
POLYLINE
  8
0
 66
1
 70
1
  0
VERTEX
  8
0
 10
164.811780
 20
198.840469
 42
0.000000
  0
VERTEX
  8
0
 10
171.390511
 20
195.500000
 42
0.000000
  0
VERTEX
  8
0
 10
212.230958
 20
195.207718
 42
0.000000
  0
VERTEX
  8
0
 10
253.071404
 20
194.915436
 42
0.000000
  0
VERTEX
  8
0
 10
252.785702
 20
185.207718
 42
0.000000
  0
VERTEX
  8
0
 10
252.500000
 20
175.500000
 42
0.000000
  0
VERTEX
  8
0
 10
235.500000
 20
174.978362
 42
0.007425
  0
VERTEX
  8
0
 10
223.482346
 20
174.430877
 42
0.047207
  0
VERTEX
  8
0
 10
217.450303
 20
173.490078
 42
0.100141
  0
VERTEX
  8
0
 10
213.881193
 20
171.771805
 42
0.111775
  0
VERTEX
  8
0
 10
211.425004
 20
168.854975
 42
0.063371
  0
VERTEX
  8
0
 10
210.233389
 20
165.597377
 42
0.085744
  0
VERTEX
  8
0
 10
210.067514
 20
162.472582
 42
0.089919
  0
VERTEX
  8
0
 10
210.952526
 20
159.584925
 42
0.077316
  0
VERTEX
  8
0
 10
212.828803
 20
157.017351
 42
0.081196
  0
VERTEX
  8
0
 10
216.311912
 20
154.513005
 42
0.064819
  0
VERTEX
  8
0
 10
220.690567
 20
153.004056
 42
0.040010
  0
VERTEX
  8
0
 10
227.023556
 20
152.224780
 42
0.010513
  0
VERTEX
  8
0
 10
237.250000
 20
152.005577
 42
0.000000
  0
VERTEX
  8
0
 10
251.000000
 20
152.000000
 42
0.000000
  0
VERTEX
  8
0
 10
251.000000
 20
142.000000
 42
0.000000
  0
VERTEX
  8
0
 10
251.000000
 20
132.000000
 42
0.000000
  0
VERTEX
  8
0
 10
203.975017
 20
132.000000
 42
0.000834
  0
VERTEX
  8
0
 10
175.182038
 20
131.951951
 42
0.008375
  0
VERTEX
  8
0
 10
163.159716
 20
131.710423
 42
0.020220
  0
VERTEX
  8
0
 10
156.227710
 20
131.173709
 42
0.055126
  0
VERTEX
  8
0
 10
151.441626
 20
130.063950
 42
0.042441
  0
VERTEX
  8
0
 10
146.836641
 20
127.991919
 42
0.020183
  0
VERTEX
  8
0
 10
141.283537
 20
124.602494
 42
0.018048
  0
VERTEX
  8
0
 10
135.162490
 20
120.191287
 42
0.013736
  0
VERTEX
  8
0
 10
128.776638
 20
114.942020
 42
0.000000
  0
VERTEX
  8
0
 10
124.053276
 20
110.836837
 42
0.000000
  0
VERTEX
  8
0
 10
128.013173
 20
119.287038
 42
0.016540
  0
VERTEX
  8
0
 10
131.645888
 20
127.757354
 42
0.014553
  0
VERTEX
  8
0
 10
134.880486
 20
136.815863
 42
0.013996
  0
VERTEX
  8
0
 10
137.701311
 20
146.413024
 42
0.012577
  0
VERTEX
  8
0
 10
140.092176
 20
156.500000
 42
0.012869
  0
VERTEX
  8
0
 10
141.268605
 20
162.898051
 42
0.017986
  0
VERTEX
  8
0
 10
141.965539
 20
168.671283
 42
0.014774
  0
VERTEX
  8
0
 10
142.326369
 20
175.270753
 42
0.005599
  0
VERTEX
  8
0
 10
142.454452
 20
184.500000
 42
0.010776
  0
VERTEX
  8
0
 10
142.228059
 20
196.494578
 42
0.030745
  0
VERTEX
  8
0
 10
141.379192
 20
204.796597
 42
0.039452
  0
VERTEX
  8
0
 10
139.675569
 20
211.691686
 42
0.030337
  0
VERTEX
  8
0
 10
136.785811
 20
218.890218
 42
-0.000068
  0
VERTEX
  8
0
 10
135.915696
 20
220.727654
 42
-0.000085
  0
VERTEX
  8
0
 10
135.107417
 20
222.435868
 42
-0.000069
  0
VERTEX
  8
0
 10
134.429170
 20
223.870418
 42
-0.000650
  0
VERTEX
  8
0
 10
134.138640
 20
224.487205
 42
-0.815502
  0
VERTEX
  8
0
 10
134.268522
 20
224.584203
 42
-0.001807
  0
VERTEX
  8
0
 10
137.418268
 20
221.763190
 42
-0.004039
  0
VERTEX
  8
0
 10
141.275708
 20
218.226204
 42
-0.002204
  0
VERTEX
  8
0
 10
145.954122
 20
213.827674
 42
0.007429
  0
VERTEX
  8
0
 10
151.923894
 20
208.331434
 42
0.014434
  0
VERTEX
  8
0
 10
156.878385
 20
204.154939
 42
0.017962
  0
VERTEX
  8
0
 10
161.109244
 20
201.033630
 42
0.032474
  0
SEQEND
  0
POLYLINE
  8
0
 66
1
 70
1
  0
VERTEX
  8
0
 10
735.453869
 20
212.696382
 42
0.032547
  0
VERTEX
  8
0
 10
730.903752
 20
203.145280
 42
0.017409
  0
VERTEX
  8
0
 10
726.484905
 20
190.837751
 42
0.016707
  0
VERTEX
  8
0
 10
722.650733
 20
177.324922
 42
0.018348
  0
VERTEX
  8
0
 10
719.861116
 20
164.000000
 42
0.020735
  0
VERTEX
  8
0
 10
719.367687
 20
160.172734
 42
0.007090
  0
VERTEX
  8
0
 10
718.961859
 20
154.590625
 42
0.007034
  0
VERTEX
  8
0
 10
718.687719
 20
148.409976
 42
0.008066
  0
VERTEX
  8
0
 10
718.604228
 20
142.500000
 42
0.014398
  0
VERTEX
  8
0
 10
718.918351
 20
132.304171
 42
0.030218
  0
VERTEX
  8
0
 10
719.867267
 20
124.435223
 42
0.034862
  0
VERTEX
  8
0
 10
721.641871
 20
117.488918
 42
0.027339
  0
VERTEX
  8
0
 10
724.486997
 20
110.250000
 42
-0.006103
  0
VERTEX
  8
0
 10
725.378864
 20
108.236352
 42
-0.010625
  0
VERTEX
  8
0
 10
726.062395
 20
106.542187
 42
-0.004936
  0
VERTEX
  8
0
 10
726.577054
 20
105.142561
 42
-0.518481
  0
VERTEX
  8
0
 10
726.476532
 20
105.000000
 42
-0.186355
  0
VERTEX
  8
0
 10
726.191584
 20
105.110024
 42
-0.000469
  0
VERTEX
  8
0
 10
722.943879
 20
108.063010
 42
-0.002830
  0
VERTEX
  8
0
 10
719.289940
 20
111.429678
 42
-0.001748
  0
VERTEX
  8
0
 10
715.030183
 20
115.427270
 42
0.008921
  0
VERTEX
  8
0
 10
709.973600
 20
120.038039
 42
0.013286
  0
VERTEX
  8
0
 10
705.374725
 20
123.871721
 42
0.015167
  0
VERTEX
  8
0
 10
701.379383
 20
126.834029
 42
0.037819
  0
VERTEX
  8
0
 10
698.248327
 20
128.677270
 42
0.000000
  0
VERTEX
  8
0
 10
692.500000
 20
131.500000
 42
0.000000
  0
VERTEX
  8
0
 10
626.151034
 20
131.770908
 42
-0.000505
  0
VERTEX
  8
0
 10
586.030139
 20
131.975276
 42
-0.005749
  0
VERTEX
  8
0
 10
570.181071
 20
132.254271
 42
-0.006601
  0
VERTEX
  8
0
 10
561.108849
 20
132.638265
 42
-0.508501
  0
VERTEX
  8
0
 10
560.432144
 20
133.683766
 42
0.037959
  0
VERTEX
  8
0
 10
560.736565
 20
134.701945
 42
0.004924
  0
VERTEX
  8
0
 10
561.198363
 20
136.925241
 42
0.005717
  0
VERTEX
  8
0
 10
561.690907
 20
139.578982
 42
0.004747
  0
VERTEX
  8
0
 10
562.155762
 20
142.412858
 42
-0.001706
  0
VERTEX
  8
0
 10
562.597613
 20
145.213036
 42
-0.002247
  0
VERTEX
  8
0
 10
563.020758
 20
147.763560
 42
-0.001626
  0
VERTEX
  8
0
 10
563.391917
 20
149.898207
 42
-0.021690
  0
VERTEX
  8
0
 10
563.564816
 20
150.675856
 42
-0.317736
  0
VERTEX
  8
0
 10
564.300265
 20
151.287002
 42
-0.005444
  0
VERTEX
  8
0
 10
569.807974
 20
151.657490
 42
-0.008675
  0
VERTEX
  8
0
 10
577.667105
 20
151.963584
 42
-0.002315
  0
VERTEX
  8
0
 10
590.190163
 20
152.175856
 42
0.001474
  0
VERTEX
  8
0
 10
606.810546
 20
152.429629
 42
0.016961
  0
VERTEX
  8
0
 10
613.334511
 20
152.770059
 42
0.045246
  0
VERTEX
  8
0
 10
617.125465
 20
153.446132
 42
0.072484
  0
VERTEX
  8
0
 10
620.132343
 20
154.758843
 42
0.124419
  0
VERTEX
  8
0
 10
624.524547
 20
159.316753
 42
0.162989
  0
VERTEX
  8
0
 10
625.644591
 20
164.952483
 42
0.157409
  0
VERTEX
  8
0
 10
623.145869
 20
170.271002
 42
0.114789
  0
VERTEX
  8
0
 10
617.684900
 20
173.933388
 42
0.076522
  0
VERTEX
  8
0
 10
615.515548
 20
174.394477
 42
0.004616
  0
VERTEX
  8
0
 10
608.843618
 20
174.711306
 42
0.006246
  0
VERTEX
  8
0
 10
600.337651
 20
174.930193
 42
0.003309
  0
VERTEX
  8
0
 10
589.790296
 20
175.000000
 42
0.000000
  0
VERTEX
  8
0
 10
564.710790
 20
175.000000
 42
0.000000
  0
VERTEX
  8
0
 10
565.348286
 20
181.750000
 42
0.003831
  0
VERTEX
  8
0
 10
565.592857
 20
184.570279
 42
0.003565
  0
VERTEX
  8
0
 10
565.800606
 20
187.462418
 42
0.003554
  0
VERTEX
  8
0
 10
565.948672
 20
190.035952
 42
0.012039
  0
VERTEX
  8
0
 10
565.992891
 20
191.717807
 42
0.000000
  0
VERTEX
  8
0
 10
566.000000
 20
194.935614
 42
0.000000
  0
VERTEX
  8
0
 10
636.303173
 20
195.217807
 42
0.000000
  0
VERTEX
  8
0
 10
706.606347
 20
195.500000
 42
0.000000
  0
VERTEX
  8
0
 10
714.053173
 20
199.213013
 42
0.023998
  0
VERTEX
  8
0
 10
717.485789
 20
201.135404
 42
0.011848
  0
VERTEX
  8
0
 10
721.661861
 20
203.884580
 42
0.011706
  0
VERTEX
  8
0
 10
725.883829
 20
206.958389
 42
0.016334
  0
VERTEX
  8
0
 10
729.500000
 20
209.914974
 42
-0.000723
  0
VERTEX
  8
0
 10
732.580081
 20
212.597952
 42
-0.001177
  0
VERTEX
  8
0
 10
735.202759
 20
214.865031
 42
-0.000127
  0
VERTEX
  8
0
 10
737.550623
 20
216.883885
 42
-0.112620
  0
VERTEX
  8
0
 10
737.679604
 20
216.951962
 42
-0.651489
  0
VERTEX
  8
0
 10
737.716228
 20
216.906421
 42
-0.001088
  0
VERTEX
  8
0
 10
737.099881
 20
215.721701
 42
-0.004405
  0
VERTEX
  8
0
 10
736.363579
 20
214.343601
 42
-0.002537
  0
SEQEND
  0
POLYLINE
  8
0
 66
1
 70
1
  0
VERTEX
  8
0
 10
252.000000
 20
163.500000
 42
-0.009318
  0
VERTEX
  8
0
 10
251.934957
 20
160.010251
 42
-0.031691
  0
VERTEX
  8
0
 10
251.706541
 20
157.748131
 42
-0.050642
  0
VERTEX
  8
0
 10
251.330627
 20
156.364000
 42
-0.298800
  0
VERTEX
  8
0
 10
250.750000
 20
155.946238
 42
-0.011357
  0
VERTEX
  8
0
 10
249.856508
 20
155.928126
 42
-0.000356
  0
VERTEX
  8
0
 10
246.207576
 20
155.939648
 42
-0.000695
  0
VERTEX
  8
0
 10
241.905813
 20
155.962274
 42
-0.000481
  0
VERTEX
  8
0
 10
237.041747
 20
155.999298
 42
-0.005408
  0
VERTEX
  8
0
 10
230.045223
 20
156.134972
 42
-0.026669
  0
VERTEX
  8
0
 10
226.115609
 20
156.463980
 42
-0.045833
  0
VERTEX
  8
0
 10
223.349173
 20
157.107227
 42
-0.048030
  0
VERTEX
  8
0
 10
220.791747
 20
158.237201
 42
-0.121103
  0
VERTEX
  8
0
 10
217.521425
 20
161.302599
 42
-0.239430
  0
VERTEX
  8
0
 10
217.152173
 20
164.750521
 42
-0.175337
  0
VERTEX
  8
0
 10
219.873983
 20
167.914139
 42
-0.070093
  0
VERTEX
  8
0
 10
225.275048
 20
170.029061
 42
-0.037889
  0
VERTEX
  8
0
 10
227.191605
 20
170.333486
 42
-0.005961
  0
VERTEX
  8
0
 10
231.004233
 20
170.600270
 42
-0.006593
  0
VERTEX
  8
0
 10
235.514947
 20
170.802267
 42
-0.005714
  0
VERTEX
  8
0
 10
240.250000
 20
170.897639
 42
0.000000
  0
VERTEX
  8
0
 10
252.000000
 20
171.000000
 42
0.000000
  0
SEQEND
  0
POLYLINE
  8
0
 66
1
 70
1
  0
VERTEX
  8
0
 10
616.720356
 20
168.725181
 42
-0.044953
  0
VERTEX
  8
0
 10
619.241444
 20
167.049433
 42
-0.097115
  0
VERTEX
  8
0
 10
620.736986
 20
165.276355
 42
-0.121481
  0
VERTEX
  8
0
 10
621.261905
 20
163.344336
 42
-0.096405
  0
VERTEX
  8
0
 10
620.897622
 20
161.205570
 42
-0.178303
  0
VERTEX
  8
0
 10
618.539050
 20
158.482648
 42
-0.085511
  0
VERTEX
  8
0
 10
614.107876
 20
156.947653
 42
-0.034983
  0
VERTEX
  8
0
 10
606.003898
 20
156.192398
 42
-0.004781
  0
VERTEX
  8
0
 10
588.999147
 20
155.964040
 42
-0.001963
  0
VERTEX
  8
0
 10
579.683924
 20
155.964593
 42
-0.003172
  0
VERTEX
  8
0
 10
571.757308
 20
156.046462
 42
-0.000570
  0
VERTEX
  8
0
 10
564.772918
 20
156.170876
 42
-0.193992
  0
VERTEX
  8
0
 10
564.290656
 20
156.376011
 42
-0.200043
  0
VERTEX
  8
0
 10
564.112049
 20
156.809872
 42
-0.005848
  0
VERTEX
  8
0
 10
564.144511
 20
158.832989
 42
-0.010895
  0
VERTEX
  8
0
 10
564.264526
 20
161.254103
 42
-0.007193
  0
VERTEX
  8
0
 10
564.503042
 20
164.030292
 42
0.000000
  0
VERTEX
  8
0
 10
565.220963
 20
171.179038
 42
0.000000
  0
VERTEX
  8
0
 10
589.360481
 20
170.825051
 42
-0.002195
  0
VERTEX
  8
0
 10
602.789125
 20
170.569174
 42
-0.013290
  0
VERTEX
  8
0
 10
609.742675
 20
170.221063
 42
-0.025277
  0
VERTEX
  8
0
 10
614.009803
 20
169.675585
 42
-0.079945
  0
SEQEND
  0
POLYLINE
  8
0
 66
1
 70
1
  0
VERTEX
  8
0
 10
597.900043
 20
119.750000
 42
-0.022244
  0
VERTEX
  8
0
 10
599.261263
 20
114.820892
 42
-0.009844
  0
VERTEX
  8
0
 10
600.638091
 20
108.208174
 42
-0.009783
  0
VERTEX
  8
0
 10
601.811336
 20
101.206528
 42
-0.014023
  0
VERTEX
  8
0
 10
602.554711
 20
94.958193
 42
-0.069383
  0
VERTEX
  8
0
 10
601.891096
 20
81.193274
 42
-0.076186
  0
VERTEX
  8
0
 10
597.454112
 20
68.601887
 42
-0.074729
  0
VERTEX
  8
0
 10
589.356873
 20
57.727698
 42
-0.063326
  0
VERTEX
  8
0
 10
577.984779
 20
48.991110
 42
-0.012347
  0
VERTEX
  8
0
 10
572.448745
 20
45.938648
 42
-0.011657
  0
VERTEX
  8
0
 10
566.662764
 20
43.101501
 42
-0.008927
  0
VERTEX
  8
0
 10
559.511577
 20
39.953076
 42
-0.003458
  0
VERTEX
  8
0
 10
549.500000
 20
35.838236
 42
0.009073
  0
VERTEX
  8
0
 10
544.250171
 20
33.611284
 42
0.002529
  0
VERTEX
  8
0
 10
536.112195
 20
29.934138
 42
0.002551
  0
VERTEX
  8
0
 10
526.944489
 20
25.679026
 42
0.002677
  0
VERTEX
  8
0
 10
517.967046
 20
21.397571
 42
-0.007995
  0
VERTEX
  8
0
 10
502.397973
 20
14.174722
 42
-0.029281
  0
VERTEX
  8
0
 10
492.224592
 20
10.347326
 42
-0.045578
  0
VERTEX
  8
0
 10
484.343384
 20
8.665862
 42
-0.056776
  0
VERTEX
  8
0
 10
476.859747
 20
8.623379
 42
-0.066771
  0
VERTEX
  8
0
 10
469.016782
 20
10.551803
 42
-0.124344
  0
VERTEX
  8
0
 10
463.729312
 20
14.341429
 42
-0.119315
  0
VERTEX
  8
0
 10
460.742134
 20
20.310340
 42
-0.058682
  0
VERTEX
  8
0
 10
459.810415
 20
28.802746
 42
0.000000
  0
VERTEX
  8
0
 10
459.871651
 20
36.500000
 42
0.000000
  0
VERTEX
  8
0
 10
457.781342
 20
32.500000
 42
0.030523
  0
VERTEX
  8
0
 10
456.030496
 20
28.584822
 42
0.021896
  0
VERTEX
  8
0
 10
454.541917
 20
24.027436
 42
0.014495
  0
VERTEX
  8
0
 10
453.488261
 20
19.775855
 42
0.244560
  0
VERTEX
  8
0
 10
453.856408
 20
18.423354
 42
-0.741592
  0
VERTEX
  8
0
 10
453.697465
 20
18.152536
 42
-0.050204
  0
VERTEX
  8
0
 10
452.363481
 20
18.619103
 42
-0.011070
  0
VERTEX
  8
0
 10
449.022336
 20
20.269971
 42
-0.001472
  0
VERTEX
  8
0
 10
442.053368
 20
23.933622
 42
0.000000
  0
VERTEX
  8
0
 10
431.791055
 20
29.367244
 42
0.000000
  0
VERTEX
  8
0
 10
432.356582
 20
33.933622
 42
0.013646
  0
VERTEX
  8
0
 10
433.621649
 20
47.080791
 42
0.034498
  0
VERTEX
  8
0
 10
433.618469
 20
56.682333
 42
0.048672
  0
VERTEX
  8
0
 10
432.475926
 20
63.478155
 42
0.143830
  0
VERTEX
  8
0
 10
430.028484
 20
67.474223
 42
0.092208
  0
VERTEX
  8
0
 10
426.314480
 20
69.759833
 42
0.004911
  0
VERTEX
  8
0
 10
413.264485
 20
74.641406
 42
0.005300
  0
VERTEX
  8
0
 10
400.197105
 20
79.227560
 42
0.081915
  0
VERTEX
  8
0
 10
395.513882
 20
80.000000
 42
0.152406
  0
VERTEX
  8
0
 10
391.600701
 20
78.778852
 42
0.101335
  0
VERTEX
  8
0
 10
388.324815
 20
75.358643
 42
0.066684
  0
VERTEX
  8
0
 10
385.658000
 20
69.523741
 42
0.027021
  0
VERTEX
  8
0
 10
383.562574
 20
61.016283
 42
-0.003059
  0
VERTEX
  8
0
 10
382.928240
 20
57.780585
 42
-0.004748
  0
VERTEX
  8
0
 10
382.337431
 20
54.997792
 42
-0.001585
  0
VERTEX
  8
0
 10
381.797808
 20
52.605655
 42
-0.141013
  0
VERTEX
  8
0
 10
381.623079
 20
52.289745
 42
-0.533610
  0
VERTEX
  8
0
 10
380.964179
 20
52.419848
 42
-0.006377
  0
VERTEX
  8
0
 10
379.024625
 20
57.237372
 42
-0.014135
  0
VERTEX
  8
0
 10
377.292232
 20
62.108027
 42
-0.038743
  0
VERTEX
  8
0
 10
376.439108
 20
65.655433
 42
-0.087324
  0
VERTEX
  8
0
 10
376.514928
 20
70.502131
 42
-0.072073
  0
VERTEX
  8
0
 10
378.210219
 20
75.391688
 42
-0.071438
  0
VERTEX
  8
0
 10
381.243627
 20
79.638202
 42
-0.082848
  0
VERTEX
  8
0
 10
385.216033
 20
82.611715
 42
-0.063786
  0
VERTEX
  8
0
 10
387.067293
 20
83.287164
 42
-0.057725
  0
VERTEX
  8
0
 10
389.093793
 20
83.505093
 42
-0.032035
  0
VERTEX
  8
0
 10
391.992976
 20
83.295283
 42
-0.006123
  0
VERTEX
  8
0
 10
397.218394
 20
82.513357
 42
0.032849
  0
VERTEX
  8
0
 10
411.542922
 20
81.146851
 42
0.034695
  0
VERTEX
  8
0
 10
425.660354
 20
81.710824
 42
0.036552
  0
VERTEX
  8
0
 10
438.801192
 20
84.134114
 42
0.048557
  0
VERTEX
  8
0
 10
450.199695
 20
88.326807
 42
0.000000
  0
VERTEX
  8
0
 10
457.433403
 20
91.816673
 42
0.000000
  0
VERTEX
  8
0
 10
465.971080
 20
88.956288
 42
0.020914
  0
VERTEX
  8
0
 10
475.401085
 20
86.229785
 42
0.021970
  0
VERTEX
  8
0
 10
484.872941
 20
84.352108
 42
0.021204
  0
VERTEX
  8
0
 10
494.775041
 20
83.264821
 42
0.016975
  0
VERTEX
  8
0
 10
505.500000
 20
82.910588
 42
0.025654
  0
VERTEX
  8
0
 10
518.741997
 20
83.602809
 42
0.044397
  0
VERTEX
  8
0
 10
529.553630
 20
85.707463
 42
0.053039
  0
VERTEX
  8
0
 10
538.361415
 20
89.296848
 42
0.065890
  0
VERTEX
  8
0
 10
545.531720
 20
94.465145
 42
-0.023075
  0
VERTEX
  8
0
 10
547.755017
 20
96.376109
 42
-0.069166
  0
VERTEX
  8
0
 10
549.483798
 20
97.379164
 42
-0.071353
  0
VERTEX
  8
0
 10
551.390143
 20
97.856125
 42
-0.025681
  0
VERTEX
  8
0
 10
554.189539
 20
98.000000
 42
-0.027527
  0
VERTEX
  8
0
 10
556.293636
 20
97.884072
 42
-0.021491
  0
VERTEX
  8
0
 10
558.556207
 20
97.535039
 42
-0.021950
  0
VERTEX
  8
0
 10
560.640158
 20
97.025223
 42
-0.048395
  0
VERTEX
  8
0
 10
562.160207
 20
96.417154
 42
0.000000
  0
VERTEX
  8
0
 10
565.221094
 20
94.834308
 42
0.000000
  0
VERTEX
  8
0
 10
562.867349
 20
99.022232
 42
0.028200
  0
VERTEX
  8
0
 10
561.746269
 20
100.777375
 42
0.020859
  0
VERTEX
  8
0
 10
560.321768
 20
102.588335
 42
0.021214
  0
VERTEX
  8
0
 10
558.827516
 20
104.190214
 42
0.043667
  0
VERTEX
  8
0
 10
557.506802
 20
105.281240
 42
-0.000432
  0
VERTEX
  8
0
 10
556.328403
 20
106.094424
 42
-0.000604
  0
VERTEX
  8
0
 10
555.276124
 20
106.823798
 42
-0.000361
  0
VERTEX
  8
0
 10
554.390600
 20
107.440122
 42
-0.007956
  0
VERTEX
  8
0
 10
554.135324
 20
107.624171
 42
-0.300232
  0
VERTEX
  8
0
 10
554.037736
 20
107.894132
 42
-0.002838
  0
VERTEX
  8
0
 10
554.566397
 20
110.034561
 42
-0.008214
  0
VERTEX
  8
0
 10
555.242458
 20
112.533201
 42
-0.005078
  0
VERTEX
  8
0
 10
556.114903
 20
115.448009
 42
0.000000
  0
VERTEX
  8
0
 10
558.459157
 20
123.000000
 42
0.000000
  0
VERTEX
  8
0
 10
577.652027
 20
123.000000
 42
0.000000
  0
VERTEX
  8
0
 10
596.844896
 20
123.000000
 42
0.000000
  0
SEQEND
  0
POLYLINE
  8
0
 66
1
 70
1
  0
VERTEX
  8
0
 10
412.553084
 20
69.932879
 42
-0.013854
  0
VERTEX
  8
0
 10
420.781819
 20
66.449810
 42
-0.066553
  0
VERTEX
  8
0
 10
425.082241
 20
63.747481
 42
-0.119700
  0
VERTEX
  8
0
 10
427.236253
 20
60.845875
 42
-0.100416
  0
VERTEX
  8
0
 10
428.000000
 20
57.081297
 42
-0.022281
  0
VERTEX
  8
0
 10
427.813057
 20
52.888311
 42
-0.002551
  0
VERTEX
  8
0
 10
426.923251
 20
43.471641
 42
-0.000613
  0
VERTEX
  8
0
 10
425.881099
 20
33.141123
 42
-0.139694
  0
VERTEX
  8
0
 10
425.525691
 20
32.249634
 42
-0.323784
  0
VERTEX
  8
0
 10
424.412373
 20
31.920332
 42
-0.001592
  0
VERTEX
  8
0
 10
412.709601
 20
36.084563
 42
-0.006999
  0
VERTEX
  8
0
 10
401.913614
 20
40.136424
 42
-0.023330
  0
VERTEX
  8
0
 10
395.000000
 20
43.221310
 42
0.000000
  0
VERTEX
  8
0
 10
386.500000
 20
47.500000
 42
0.000000
  0
VERTEX
  8
0
 10
386.678016
 20
53.038013
 42
-0.043578
  0
VERTEX
  8
0
 10
387.340498
 20
58.567785
 42
-0.027513
  0
VERTEX
  8
0
 10
389.020970
 20
64.850747
 42
-0.025984
  0
VERTEX
  8
0
 10
391.187253
 20
70.463950
 42
-0.109592
  0
VERTEX
  8
0
 10
393.325259
 20
73.344022
 42
-0.133196
  0
VERTEX
  8
0
 10
395.771486
 20
74.522876
 42
-0.090197
  0
VERTEX
  8
0
 10
398.883029
 20
74.536343
 42
-0.042238
  0
VERTEX
  8
0
 10
403.661987
 20
73.265005
 42
-0.007069
  0
SEQEND
  0
POLYLINE
  8
0
 66
1
 70
1
  0
VERTEX
  8
0
 10
451.011865
 20
340.250000
 42
0.238729
  0
VERTEX
  8
0
 10
451.230891
 20
339.833879
 42
0.007570
  0
VERTEX
  8
0
 10
452.852697
 20
338.718465
 42
0.013174
  0
VERTEX
  8
0
 10
454.870245
 20
337.450811
 42
0.008577
  0
VERTEX
  8
0
 10
457.261865
 20
336.089454
 42
-0.045428
  0
VERTEX
  8
0
 10
467.616810
 20
329.139450
 42
-0.108740
  0
VERTEX
  8
0
 10
473.346835
 20
321.940317
 42
-0.088317
  0
VERTEX
  8
0
 10
476.185608
 20
312.047762
 42
-0.023362
  0
VERTEX
  8
0
 10
477.118794
 20
295.566341
 42
0.000997
  0
VERTEX
  8
0
 10
477.215337
 20
287.411423
 42
0.045607
  0
VERTEX
  8
0
 10
477.390987
 20
285.744443
 42
0.775210
  0
VERTEX
  8
0
 10
477.726114
 20
285.725731
 42
0.014025
  0
VERTEX
  8
0
 10
478.522798
 20
288.500000
 42
0.052421
  0
VERTEX
  8
0
 10
479.775991
 20
296.972511
 42
0.033223
  0
VERTEX
  8
0
 10
479.533009
 20
306.961055
 42
0.033040
  0
VERTEX
  8
0
 10
477.957235
 20
316.928183
 42
0.048442
  0
VERTEX
  8
0
 10
475.169778
 20
325.349094
 42
0.047038
  0
VERTEX
  8
0
 10
472.784399
 20
329.608803
 42
0.032232
  0
VERTEX
  8
0
 10
469.345721
 20
333.958777
 42
0.032618
  0
VERTEX
  8
0
 10
465.589703
 20
337.617060
 42
0.077790
  0
VERTEX
  8
0
 10
462.282119
 20
339.652871
 42
0.057130
  0
VERTEX
  8
0
 10
459.278748
 20
340.524096
 42
0.028824
  0
VERTEX
  8
0
 10
455.354397
 20
340.959769
 42
0.021453
  0
VERTEX
  8
0
 10
451.722608
 20
340.996214
 42
0.409230
  0
SEQEND
  0
POLYLINE
  8
0
 66
1
 70
1
  0
VERTEX
  8
0
 10
368.000000
 20
316.272118
 42
-0.067728
  0
VERTEX
  8
0
 10
377.016473
 20
308.415249
 42
-0.055284
  0
VERTEX
  8
0
 10
384.336570
 20
297.903959
 42
-0.058179
  0
VERTEX
  8
0
 10
388.795612
 20
286.792385
 42
-0.110538
  0
VERTEX
  8
0
 10
389.229015
 20
277.213459
 42
0.013881
  0
VERTEX
  8
0
 10
389.035207
 20
275.906413
 42
0.126912
  0
VERTEX
  8
0
 10
389.110822
 20
275.341355
 42
0.427237
  0
VERTEX
  8
0
 10
389.388703
 20
275.231084
 42
0.080593
  0
VERTEX
  8
0
 10
389.895573
 20
275.570901
 42
0.131611
  0
VERTEX
  8
0
 10
390.376127
 20
276.341426
 42
0.017038
  0
VERTEX
  8
0
 10
390.883051
 20
278.232886
 42
0.018912
  0
VERTEX
  8
0
 10
391.331780
 20
280.566620
 42
0.014759
  0
VERTEX
  8
0
 10
391.647601
 20
283.129158
 42
0.088019
  0
VERTEX
  8
0
 10
390.654175
 20
295.147265
 42
0.087615
  0
VERTEX
  8
0
 10
385.588004
 20
306.111455
 42
0.091019
  0
VERTEX
  8
0
 10
377.281766
 20
314.355356
 42
0.105202
  0
VERTEX
  8
0
 10
366.986489
 20
318.592822
 42
0.000000
  0
VERTEX
  8
0
 10
363.500000
 20
319.230239
 42
0.000000
  0
SEQEND
  0
POLYLINE
  8
0
 66
1
 70
1
  0
VERTEX
  8
0
 10
365.200525
 20
100.888404
 42
-0.035002
  0
VERTEX
  8
0
 10
355.642365
 20
97.218146
 42
-0.046383
  0
VERTEX
  8
0
 10
346.521254
 20
95.331605
 42
-0.050890
  0
VERTEX
  8
0
 10
337.942918
 20
95.249540
 42
-0.059811
  0
VERTEX
  8
0
 10
330.000000
 20
96.955840
 42
0.001422
  0
VERTEX
  8
0
 10
326.226699
 20
98.240869
 42
0.084689
  0
VERTEX
  8
0
 10
325.516510
 20
98.352872
 42
0.685680
  0
VERTEX
  8
0
 10
325.435280
 20
98.134516
 42
0.010311
  0
VERTEX
  8
0
 10
326.869012
 20
96.916531
 42
0.110049
  0
VERTEX
  8
0
 10
333.499306
 20
93.595321
 42
0.048747
  0
VERTEX
  8
0
 10
343.235053
 20
92.146338
 42
0.047771
  0
VERTEX
  8
0
 10
353.551210
 20
92.612307
 42
0.073849
  0
VERTEX
  8
0
 10
362.090524
 20
95.142307
 42
0.026080
  0
VERTEX
  8
0
 10
364.420910
 20
96.378180
 42
0.023169
  0
VERTEX
  8
0
 10
366.707144
 20
97.896039
 42
0.024033
  0
VERTEX
  8
0
 10
368.656440
 20
99.473911
 42
0.055929
  0
VERTEX
  8
0
 10
369.908618
 20
100.871666
 42
0.005117
  0
VERTEX
  8
0
 10
370.740733
 20
102.065945
 42
0.009454
  0
VERTEX
  8
0
 10
371.388399
 20
103.055789
 42
0.005652
  0
VERTEX
  8
0
 10
371.870939
 20
103.844265
 42
0.674176
  0
VERTEX
  8
0
 10
371.818094
 20
103.913999
 42
0.040893
  0
VERTEX
  8
0
 10
371.580094
 20
103.828256
 42
0.000325
  0
VERTEX
  8
0
 10
369.742970
 20
102.989755
 42
0.001183
  0
VERTEX
  8
0
 10
367.638042
 20
102.021339
 42
0.000760
  0
SEQEND
  0
POLYLINE
  8
0
 66
1
 70
1
  0
VERTEX
  8
0
 10
485.010824
 20
58.809017
 42
0.060549
  0
VERTEX
  8
0
 10
485.046864
 20
58.579813
 42
0.000752
  0
VERTEX
  8
0
 10
485.455914
 20
57.148775
 42
0.002210
  0
VERTEX
  8
0
 10
485.939306
 20
55.494800
 42
0.001444
  0
VERTEX
  8
0
 10
486.510824
 20
53.591069
 42
-0.060254
  0
VERTEX
  8
0
 10
487.939710
 20
45.470405
 42
-0.041259
  0
VERTEX
  8
0
 10
487.671166
 20
36.103147
 42
-0.039267
  0
VERTEX
  8
0
 10
485.800955
 20
26.359000
 42
-0.040096
  0
VERTEX
  8
0
 10
482.438481
 20
17.097724
 42
0.009203
  0
VERTEX
  8
0
 10
481.524642
 20
14.995229
 42
0.014441
  0
VERTEX
  8
0
 10
480.825444
 20
13.152899
 42
0.008466
  0
VERTEX
  8
0
 10
480.322026
 20
11.617941
 42
0.278207
  0
VERTEX
  8
0
 10
480.411957
 20
11.254709
 42
0.466093
  0
VERTEX
  8
0
 10
481.409077
 20
11.341591
 42
0.012072
  0
VERTEX
  8
0
 10
484.224142
 20
15.569446
 42
0.020729
  0
VERTEX
  8
0
 10
486.918804
 20
20.255840
 42
0.037449
  0
VERTEX
  8
0
 10
488.664537
 20
24.322201
 42
0.055648
  0
VERTEX
  8
0
 10
490.038240
 20
30.480492
 42
0.027256
  0
VERTEX
  8
0
 10
490.471031
 20
38.518335
 42
0.027257
  0
VERTEX
  8
0
 10
490.026553
 20
46.561268
 42
0.055264
  0
VERTEX
  8
0
 10
488.644463
 20
52.738238
 42
0.011507
  0
VERTEX
  8
0
 10
487.888670
 20
54.786125
 42
0.015371
  0
VERTEX
  8
0
 10
487.103771
 20
56.605410
 42
0.012553
  0
VERTEX
  8
0
 10
486.374430
 20
58.065907
 42
0.133018
  0
VERTEX
  8
0
 10
485.923540
 20
58.547255
 42
0.022450
  0
VERTEX
  8
0
 10
485.569737
 20
58.744546
 42
0.046155
  0
VERTEX
  8
0
 10
485.274470
 20
58.859594
 42
0.081817
  0
VERTEX
  8
0
 10
485.078444
 20
58.882441
 42
0.410637
  0
SEQEND
  0
POLYLINE
  8
0
 66
1
 70
1
  0
VERTEX
  8
0
 10
552.000000
 20
45.127445
 42
0.030033
  0
VERTEX
  8
0
 10
546.324265
 20
42.922284
 42
0.009804
  0
VERTEX
  8
0
 10
538.232921
 20
39.011431
 42
0.010077
  0
VERTEX
  8
0
 10
529.866459
 20
34.548968
 42
0.016567
  0
VERTEX
  8
0
 10
523.000000
 20
30.402392
 42
0.019609
  0
VERTEX
  8
0
 10
519.856326
 20
28.178832
 42
0.839775
  0
VERTEX
  8
0
 10
520.052580
 20
27.802865
 42
0.018600
  0
VERTEX
  8
0
 10
523.669888
 20
29.100965
 42
0.000383
  0
VERTEX
  8
0
 10
541.500000
 20
36.274414
 42
-0.000605
  0
VERTEX
  8
0
 10
549.762647
 20
39.594402
 42
-0.000828
  0
VERTEX
  8
0
 10
557.212500
 20
42.563040
 42
-0.000535
  0
VERTEX
  8
0
 10
563.479573
 20
45.040592
 42
-0.009674
  0
VERTEX
  8
0
 10
565.500000
 20
45.791999
 42
0.700772
  0
VERTEX
  8
0
 10
565.508894
 20
46.558554
 42
0.102632
  0
VERTEX
  8
0
 10
563.140787
 20
46.929456
 42
0.025413
  0
VERTEX
  8
0
 10
557.086258
 20
46.321966
 42
0.039949
  0
SEQEND
  0
ENDSEC
  0
EOF
